<svg id="Layer_2" xmlns="http://www.w3.org/2000/svg" viewBox="0 0 548.44 863.77"><defs><style>.cls-1{fill:#fff}.cls-2{opacity:.2}</style></defs><g class="cls-2"><path class="cls-1" d="M157.65 73.8c2.7 1.39 4.5 3.23 5.39 5.53.89 2.3 1.34 5.24 1.34 8.8v23.45h-12.25v-3.24c-1.65 1.5-3.27 2.57-4.86 3.2-1.6.63-3.36.95-5.28.95-4.51 0-8.04-1.18-10.6-3.56-2.56-2.37-3.84-5.67-3.84-9.9s1.3-7.56 3.91-9.86c2.61-2.3 6.23-3.45 10.88-3.45 3.85 0 7.11.7 9.79 2.11-.05-1.31-.25-2.36-.6-3.13s-1.06-1.37-2.11-1.8c-1.06-.42-2.6-.63-4.61-.63h-8.03V71.71h9.09c5.16 0 9.1.69 11.8 2.08Zm-5.53 26.02v-3.73c-2.25-1.08-4.53-1.62-6.83-1.62-1.69 0-3.01.36-3.94 1.09-.94.73-1.41 1.84-1.41 3.35s.4 2.63 1.2 3.24c.8.61 1.95.92 3.45.92 2.4 0 4.91-1.08 7.54-3.24ZM233.5 74.89c2.51 2.68 3.77 6.93 3.77 12.75v23.95h-12.25V87.64c0-1.92-.42-3.39-1.27-4.4-.84-1.01-2.3-1.51-4.37-1.51-2.54 0-5.12 1.13-7.75 3.38.05.52.07 1.36.07 2.54v23.95h-12.26V87.65c0-1.92-.42-3.39-1.27-4.4-.85-1.01-2.3-1.51-4.37-1.51-2.49 0-5.05 1.08-7.68 3.24v26.62h-12.26V71.73h12.26v3.1c1.64-1.36 3.3-2.36 4.97-2.99 1.67-.63 3.49-.95 5.46-.95 6.24 0 10.52 2 12.82 5.99 2.11-2.07 4.17-3.58 6.16-4.54 2-.96 4.19-1.44 6.58-1.44 5.07 0 8.86 1.34 11.38 4.02ZM260.69 100.74c1.62 1.27 4 1.9 7.15 1.9 1.83 0 3.58-.22 5.25-.67 1.67-.45 3.58-1.21 5.74-2.29l3.17 9.44c-2.44 1.36-4.86 2.31-7.25 2.85-2.39.54-5.26.81-8.59.81-4.65 0-8.61-.88-11.87-2.64-3.26-1.76-5.74-4.24-7.43-7.43-1.69-3.19-2.54-6.9-2.54-11.13s.87-8.21 2.61-11.37c1.74-3.17 4.08-5.56 7.04-7.18s6.27-2.43 9.93-2.43c5.87 0 10.47 1.7 13.81 5.11 3.33 3.4 5 8.37 5 14.9v4.86h-25.22c.52 2.25 1.58 4.02 3.21 5.28ZM259.77 82c-1.06.85-1.8 2.3-2.22 4.37h12.26c-.19-1.97-.76-3.4-1.73-4.3-.96-.89-2.36-1.34-4.19-1.34-1.69 0-3.06.42-4.12 1.27ZM314.46 70.88v10.85h-1.62c-3.62 0-7.23 1.29-10.85 3.87v25.99h-12.25V71.72h12.25v3.52c1.74-1.45 3.49-2.55 5.25-3.27 1.76-.73 3.63-1.09 5.6-1.09h1.62Z"/></g><g class="cls-2"><path class="cls-1" d="M145.8 369.44c2.7 1.39 4.49 3.23 5.39 5.53.89 2.3 1.34 5.24 1.34 8.8v23.45h-12.26v-3.24c-1.64 1.5-3.26 2.57-4.86 3.2-1.6.63-3.36.95-5.28.95-4.51 0-8.04-1.18-10.6-3.56-2.56-2.37-3.84-5.67-3.84-9.9s1.3-7.56 3.91-9.86c2.61-2.3 6.23-3.45 10.88-3.45 3.85 0 7.11.7 9.79 2.11-.05-1.31-.25-2.36-.6-3.13s-1.06-1.37-2.11-1.8c-1.06-.42-2.59-.63-4.61-.63h-8.03v-10.56h9.09c5.16 0 9.1.69 11.8 2.08Zm-5.53 26.02v-3.73c-2.25-1.08-4.53-1.62-6.83-1.62-1.69 0-3.01.36-3.94 1.09-.94.73-1.41 1.84-1.41 3.35s.4 2.63 1.2 3.24c.8.61 1.95.92 3.45.92 2.39 0 4.91-1.08 7.54-3.24ZM165.09 405.39c-2.04-1.83-3.06-4.46-3.06-7.89v-49.87h12.26v45.43c0 1.55.26 2.64.77 3.27.52.63 1.45.95 2.82.95 1.55 0 2.93-.19 4.16-.56v10.42c-1.6.33-2.95.58-4.05.74s-2.29.25-3.56.25c-4.18 0-7.29-.92-9.33-2.75ZM202.63 396.38c1.62 1.27 4 1.9 7.15 1.9 1.83 0 3.58-.22 5.25-.67 1.67-.45 3.58-1.21 5.74-2.29l3.17 9.44c-2.44 1.36-4.86 2.31-7.25 2.85-2.39.54-5.26.81-8.59.81-4.65 0-8.6-.88-11.87-2.64-3.26-1.76-5.74-4.24-7.43-7.43-1.69-3.19-2.54-6.9-2.54-11.13s.87-8.21 2.61-11.37c1.74-3.17 4.09-5.56 7.04-7.18 2.96-1.62 6.27-2.43 9.93-2.43 5.87 0 10.47 1.7 13.81 5.11 3.33 3.4 5 8.37 5 14.9v4.86h-25.21c.52 2.25 1.58 4.02 3.2 5.28Zm-.91-18.74c-1.06.85-1.8 2.3-2.22 4.37h12.26c-.19-1.97-.76-3.4-1.73-4.3-.96-.89-2.36-1.34-4.19-1.34-1.69 0-3.06.42-4.12 1.27ZM266.97 370.53c2.63 2.68 3.94 6.93 3.94 12.75v23.95h-12.25v-23.95c0-1.92-.48-3.39-1.44-4.4-.96-1.01-2.59-1.51-4.9-1.51-2.72 0-5.52 1.13-8.38 3.38v26.48h-12.26v-39.87h12.26v3.17c1.74-1.36 3.51-2.37 5.32-3.03 1.81-.66 3.74-.99 5.81-.99 5.3 0 9.27 1.34 11.9 4.02ZM295.36 379.61v13.45c0 1.55.26 2.64.77 3.27s1.45.95 2.82.95c1.55 0 2.93-.19 4.16-.56v10.42c-1.6.33-2.95.58-4.05.74-1.1.16-2.29.25-3.56.25-4.18 0-7.29-.92-9.33-2.75s-3.06-4.46-3.06-7.89V379.6h-5.49v-10.85h5.49v-13.38h12.25v13.38h9.02v10.85h-9.02ZM350.29 367.36v39.87h-12.26v-3.17c-1.74 1.36-3.51 2.37-5.32 3.03-1.81.66-3.75.99-5.81.99-5.31 0-9.27-1.34-11.9-4.02-2.63-2.68-3.94-6.93-3.94-12.75v-23.95h12.26v23.95c0 1.93.48 3.39 1.44 4.4.96 1.01 2.59 1.52 4.9 1.52 2.72 0 5.52-1.13 8.38-3.38v-26.48h12.26ZM374.06 396.38c1.62 1.27 4 1.9 7.15 1.9 1.83 0 3.58-.22 5.25-.67 1.67-.45 3.58-1.21 5.74-2.29l3.17 9.44c-2.44 1.36-4.86 2.31-7.25 2.85-2.39.54-5.26.81-8.59.81-4.65 0-8.6-.88-11.87-2.64-3.26-1.76-5.74-4.24-7.43-7.43-1.69-3.19-2.54-6.9-2.54-11.13s.87-8.21 2.61-11.37c1.74-3.17 4.09-5.56 7.04-7.18 2.96-1.62 6.27-2.43 9.93-2.43 5.87 0 10.47 1.7 13.81 5.11 3.33 3.4 5 8.37 5 14.9v4.86h-25.21c.52 2.25 1.58 4.02 3.2 5.28Zm-.91-18.74c-1.06.85-1.8 2.3-2.22 4.37h12.26c-.19-1.97-.76-3.4-1.73-4.3-.96-.89-2.36-1.34-4.19-1.34-1.69 0-3.06.42-4.12 1.27ZM442 367.36v39.87h-12.26v-3.17c-1.74 1.36-3.51 2.37-5.32 3.03-1.81.66-3.75.99-5.81.99-5.31 0-9.27-1.34-11.9-4.02-2.63-2.68-3.94-6.93-3.94-12.75v-23.95h12.26v23.95c0 1.93.48 3.39 1.44 4.4.96 1.01 2.59 1.52 4.9 1.52 2.72 0 5.52-1.13 8.38-3.38v-26.48h12.26ZM475.31 407.22l-6.48-10.78-6.2 10.78h-14.3l13.03-20.78-12.33-19.09h14.3l5.71 9.65 5.77-9.65h14.16L476.22 387l13.38 20.21h-14.3Z"/></g><g class="cls-2"><path class="cls-1" d="M202.25 515.86c2.51 2.68 3.77 6.93 3.77 12.75v23.95h-12.26v-23.95c0-1.92-.42-3.39-1.27-4.4-.84-1.01-2.3-1.51-4.37-1.51-2.54 0-5.12 1.13-7.75 3.38.05.52.07 1.36.07 2.54v23.95h-12.25v-23.95c0-1.92-.42-3.39-1.27-4.4-.84-1.01-2.3-1.51-4.37-1.51-2.49 0-5.05 1.08-7.68 3.24v26.62h-12.26V512.7h12.26v3.1c1.64-1.36 3.3-2.36 4.96-2.99 1.67-.63 3.49-.95 5.46-.95 6.25 0 10.52 2 12.82 5.99 2.11-2.07 4.17-3.58 6.16-4.54 2-.96 4.19-1.44 6.59-1.44 5.07 0 8.86 1.34 11.38 4.02ZM247.96 513.92c2.75 1.57 4.91 3.94 6.48 7.11 1.57 3.17 2.36 7.03 2.36 11.59s-.79 8.49-2.36 11.66c-1.57 3.17-3.73 5.54-6.48 7.11-2.75 1.57-5.91 2.36-9.47 2.36-3.8 0-7.37-1.27-10.71-3.8v2.61h-12.26v-59.59h12.26v22.4c3.33-2.54 6.9-3.8 10.71-3.8 3.57 0 6.73.79 9.47 2.36Zm-5.98 26.38c1.38-1.74 2.08-4.3 2.08-7.68s-.69-5.87-2.08-7.61c-1.39-1.74-3.44-2.61-6.16-2.61s-5.35.96-8.03 2.89v14.72c2.67 1.93 5.35 2.89 8.03 2.89s4.78-.87 6.16-2.61ZM264.2 495.71h12.25v10.63H264.2v-10.63Zm0 16.98h12.25v39.87H264.2v-39.87ZM301.25 524.94v13.45c0 1.55.26 2.64.77 3.27.52.63 1.46.95 2.82.95 1.55 0 2.93-.19 4.16-.56v10.42c-1.6.33-2.95.58-4.05.74s-2.29.25-3.56.25c-4.18 0-7.29-.92-9.33-2.75s-3.06-4.46-3.06-7.89v-17.89h-5.49v-10.85H289V500.7h12.25v13.38h9.01v10.85h-9.01ZM317.3 495.71h12.25v10.63H317.3v-10.63Zm0 16.98h12.25v39.87H317.3v-39.87ZM353.33 541.71c1.62 1.27 4 1.9 7.15 1.9 1.83 0 3.58-.22 5.25-.67 1.67-.45 3.58-1.21 5.74-2.29l3.17 9.44c-2.44 1.36-4.86 2.31-7.25 2.85-2.4.54-5.26.81-8.59.81-4.65 0-8.6-.88-11.87-2.64-3.27-1.76-5.74-4.24-7.43-7.43-1.69-3.19-2.54-6.9-2.54-11.13s.87-8.21 2.61-11.37 4.09-5.56 7.04-7.18 6.27-2.43 9.93-2.43c5.87 0 10.47 1.7 13.8 5.11s5 8.37 5 14.9v4.86h-25.21c.52 2.25 1.58 4.02 3.2 5.28Zm-.92-18.74c-1.06.85-1.8 2.3-2.22 4.37h12.25c-.19-1.97-.76-3.4-1.73-4.3-.96-.89-2.36-1.34-4.19-1.34-1.69 0-3.06.42-4.12 1.27ZM421.26 512.69v39.87h-12.25v-3.17c-1.74 1.36-3.51 2.37-5.32 3.03-1.81.66-3.75.99-5.81.99-5.31 0-9.27-1.34-11.9-4.02-2.63-2.68-3.94-6.93-3.94-12.75v-23.95h12.25v23.95c0 1.93.48 3.39 1.44 4.4.96 1.01 2.59 1.52 4.9 1.52 2.72 0 5.52-1.13 8.38-3.38V512.7h12.25ZM454.57 552.55l-6.48-10.78-6.2 10.78h-14.3l13.03-20.78-12.33-19.09h14.3l5.71 9.65 5.77-9.65h14.16l-12.75 19.65 13.38 20.21h-14.3Z"/></g><g class="cls-2"><path class="cls-1" d="M146.38 689.46c1.62 1.27 4 1.9 7.15 1.9 1.83 0 3.58-.22 5.25-.67 1.67-.45 3.58-1.21 5.74-2.29l3.17 9.44c-2.44 1.36-4.86 2.31-7.25 2.85-2.39.54-5.26.81-8.59.81-4.65 0-8.6-.88-11.87-2.64-3.26-1.76-5.74-4.24-7.43-7.43-1.69-3.19-2.54-6.9-2.54-11.13s.87-8.21 2.61-11.37c1.74-3.17 4.09-5.56 7.04-7.18 2.96-1.62 6.27-2.43 9.93-2.43 5.87 0 10.47 1.7 13.81 5.11 3.33 3.4 5 8.37 5 14.9v4.86h-25.21c.52 2.25 1.58 4.02 3.2 5.28Zm-.92-18.74c-1.06.85-1.8 2.3-2.22 4.37h12.26c-.19-1.97-.76-3.4-1.73-4.3-.96-.89-2.36-1.34-4.19-1.34-1.69 0-3.06.42-4.12 1.27Zm4.9-27.4h13.95l-8.52 10.78h-12.33l6.9-10.78ZM210.72 663.61c2.63 2.68 3.94 6.93 3.94 12.75v23.95h-12.25v-23.95c0-1.92-.48-3.39-1.44-4.4-.96-1.01-2.59-1.51-4.9-1.51-2.72 0-5.52 1.13-8.38 3.38v26.48h-12.26v-39.87h12.26v3.17c1.74-1.36 3.51-2.37 5.32-3.03 1.81-.66 3.74-.99 5.81-.99 5.3 0 9.27 1.34 11.9 4.02ZM224.17 643.46h12.26v10.63h-12.26v-10.63Zm0 16.98h12.26v39.87h-12.26v-39.87ZM273.58 662.52c2.7 1.39 4.49 3.23 5.39 5.53.89 2.3 1.34 5.24 1.34 8.8v23.45h-12.26v-3.24c-1.64 1.5-3.26 2.57-4.86 3.2-1.6.63-3.36.95-5.28.95-4.51 0-8.04-1.18-10.6-3.56-2.56-2.37-3.84-5.67-3.84-9.9s1.3-7.56 3.91-9.86c2.61-2.3 6.23-3.45 10.88-3.45 3.85 0 7.11.7 9.79 2.11-.05-1.31-.25-2.36-.6-3.13s-1.06-1.37-2.11-1.8c-1.06-.42-2.59-.63-4.61-.63h-8.03v-10.56h9.09c5.16 0 9.1.69 11.8 2.08Zm-5.53 26.02v-3.73c-2.25-1.08-4.53-1.62-6.83-1.62-1.69 0-3.01.36-3.94 1.09-.94.73-1.41 1.84-1.41 3.35s.4 2.63 1.2 3.24c.8.61 1.95.92 3.45.92 2.39 0 4.91-1.08 7.54-3.24ZM292.88 698.47c-2.04-1.83-3.06-4.46-3.06-7.89v-49.87h12.26v45.43c0 1.55.26 2.64.77 3.27.52.63 1.45.95 2.82.95 1.55 0 2.93-.19 4.16-.56v10.42c-1.6.33-2.95.58-4.05.74s-2.29.25-3.56.25c-4.18 0-7.29-.92-9.33-2.75Z"/></g><g class="cls-2"><path class="cls-1" d="M175.1 807.57v39.87h-12.26v-3.17c-1.74 1.36-3.51 2.37-5.32 3.03-1.81.66-3.75.99-5.81.99-5.31 0-9.27-1.34-11.9-4.02-2.63-2.68-3.94-6.93-3.94-12.75v-23.95h12.26v23.95c0 1.93.48 3.39 1.44 4.4.96 1.01 2.59 1.52 4.9 1.52 2.72 0 5.52-1.13 8.38-3.38v-26.48h12.26ZM199.9 819.83v13.45c0 1.55.26 2.64.77 3.27s1.45.95 2.82.95c1.55 0 2.93-.19 4.16-.56v10.42c-1.6.33-2.95.58-4.05.74-1.1.16-2.29.25-3.56.25-4.18 0-7.29-.92-9.33-2.75s-3.06-4.46-3.06-7.89v-17.89h-5.49v-10.85h5.49v-13.38h12.25v13.38h9.02v10.85h-9.02ZM251.24 810.74c2.63 2.68 3.94 6.93 3.94 12.75v23.95h-12.25v-23.95c0-1.92-.48-3.39-1.44-4.4-.96-1.01-2.59-1.51-4.9-1.51-2.72 0-5.52 1.13-8.38 3.38v26.48h-12.26v-59.59h12.26v22.89c1.74-1.36 3.51-2.37 5.32-3.03 1.81-.66 3.74-.99 5.81-.99 5.3 0 9.27 1.34 11.9 4.02ZM278.6 836.59c1.62 1.27 4 1.9 7.15 1.9 1.83 0 3.58-.22 5.25-.67 1.67-.45 3.58-1.21 5.74-2.29l3.17 9.44c-2.44 1.36-4.86 2.31-7.25 2.85-2.39.54-5.26.81-8.59.81-4.65 0-8.6-.88-11.87-2.64-3.26-1.76-5.74-4.24-7.43-7.43-1.69-3.19-2.54-6.9-2.54-11.13s.87-8.21 2.61-11.37c1.74-3.17 4.09-5.56 7.04-7.18 2.96-1.62 6.27-2.43 9.93-2.43 5.87 0 10.47 1.7 13.81 5.11 3.33 3.4 5 8.37 5 14.9v4.86h-25.21c.52 2.25 1.58 4.02 3.2 5.28Zm-.91-18.74c-1.06.85-1.8 2.3-2.22 4.37h12.26c-.19-1.97-.76-3.4-1.73-4.3-.96-.89-2.36-1.34-4.19-1.34-1.69 0-3.06.42-4.12 1.27ZM342.94 810.74c2.63 2.68 3.94 6.93 3.94 12.75v23.95h-12.25v-23.95c0-1.92-.48-3.39-1.44-4.4-.96-1.01-2.59-1.51-4.9-1.51-2.72 0-5.52 1.13-8.38 3.38v26.48h-12.26v-39.87h12.26v3.17c1.74-1.36 3.51-2.37 5.32-3.03 1.81-.66 3.74-.99 5.81-.99 5.3 0 9.27 1.34 11.9 4.02ZM371.33 819.83v13.45c0 1.55.26 2.64.77 3.27s1.45.95 2.82.95c1.55 0 2.93-.19 4.16-.56v10.42c-1.6.33-2.95.58-4.05.74-1.1.16-2.29.25-3.56.25-4.18 0-7.29-.92-9.33-2.75s-3.06-4.46-3.06-7.89v-17.89h-5.49v-10.85h5.49v-13.38h12.25v13.38h9.02v10.85h-9.02ZM387.38 790.6h12.26v10.63h-12.26V790.6Zm0 16.97h12.26v39.87h-12.26v-39.87ZM448.31 807.57v56.35h-12.26v-19.09c-3.33 2.54-6.9 3.8-10.71 3.8-3.57 0-6.73-.79-9.47-2.36-2.75-1.57-4.91-3.94-6.48-7.11s-2.36-7.05-2.36-11.66.79-8.42 2.36-11.59c1.57-3.17 3.73-5.54 6.48-7.11 2.75-1.57 5.9-2.36 9.47-2.36 3.8 0 7.37 1.27 10.71 3.8v-2.68h12.26Zm-12.26 27.33v-14.72c-2.68-1.92-5.35-2.89-8.03-2.89s-4.78.87-6.16 2.61c-1.39 1.74-2.08 4.27-2.08 7.61s.69 5.94 2.08 7.68c1.38 1.74 3.44 2.61 6.16 2.61s5.35-.96 8.03-2.89ZM497.05 807.57v39.87h-12.26v-3.17c-1.74 1.36-3.51 2.37-5.32 3.03-1.81.66-3.75.99-5.81.99-5.31 0-9.27-1.34-11.9-4.02-2.63-2.68-3.94-6.93-3.94-12.75v-23.95h12.26v23.95c0 1.93.48 3.39 1.44 4.4.96 1.01 2.59 1.52 4.9 1.52 2.72 0 5.52-1.13 8.38-3.38v-26.48h12.26ZM520.82 836.59c1.62 1.27 4 1.9 7.15 1.9 1.83 0 3.58-.22 5.25-.67 1.67-.45 3.58-1.21 5.74-2.29l3.17 9.44c-2.44 1.36-4.86 2.31-7.25 2.85-2.39.54-5.26.81-8.59.81-4.65 0-8.6-.88-11.87-2.64-3.26-1.76-5.74-4.24-7.43-7.43-1.69-3.19-2.54-6.9-2.54-11.13s.87-8.21 2.61-11.37c1.74-3.17 4.09-5.56 7.04-7.18 2.96-1.62 6.27-2.43 9.93-2.43 5.87 0 10.47 1.7 13.81 5.11 3.33 3.4 5 8.37 5 14.9v4.86h-25.21c.52 2.25 1.58 4.02 3.2 5.28Zm-.92-18.74c-1.06.85-1.8 2.3-2.22 4.37h12.26c-.19-1.97-.76-3.4-1.73-4.3-.96-.89-2.36-1.34-4.19-1.34-1.69 0-3.06.42-4.12 1.27Z"/></g><g class="cls-2"><path class="cls-1" d="M160.95 222.28v10.85h-1.62c-3.62 0-7.23 1.29-10.85 3.87v25.99h-12.26v-39.87h12.26v3.52c1.74-1.45 3.49-2.55 5.25-3.27 1.76-.73 3.63-1.09 5.6-1.09h1.62ZM167.99 206.16h12.26v10.63h-12.26v-10.63Zm0 16.97h12.26V263h-12.26v-39.87ZM228.56 223.13v39.72c0 3.38-.72 6.42-2.15 9.12-1.43 2.7-3.55 4.83-6.34 6.37-2.79 1.55-6.14 2.32-10.04 2.32s-7.16-.19-10.07-.56c-2.91-.38-5.63-1.03-8.17-1.97v-11.27c2.49 1.03 5 1.78 7.54 2.25s4.81.71 6.83.71c3.52 0 6.09-.66 7.71-1.97s2.43-3.22 2.43-5.71v-3.17c-3.33 2.54-6.9 3.8-10.71 3.8-5.59 0-10.04-1.66-13.35-4.97-3.31-3.31-4.97-8.46-4.97-15.46 0-4.41.79-8.15 2.36-11.2 1.57-3.05 3.73-5.34 6.48-6.87 2.75-1.52 5.9-2.29 9.47-2.29 3.8 0 7.37 1.27 10.71 3.8v-2.68h12.25Zm-12.25 25.92v-13.31c-2.68-1.92-5.35-2.89-8.03-2.89s-4.78.81-6.16 2.43c-1.39 1.62-2.08 3.98-2.08 7.08 0 3.52.67 6 2.01 7.43 1.34 1.43 3.42 2.15 6.23 2.15s5.35-.96 8.03-2.89ZM238.42 206.16h12.26v10.63h-12.26v-10.63Zm0 16.97h12.26V263h-12.26v-39.87ZM295.82 226.3c2.63 2.68 3.94 6.93 3.94 12.75V263h-12.25v-23.95c0-1.92-.48-3.39-1.44-4.4-.96-1.01-2.59-1.51-4.9-1.51-2.72 0-5.52 1.13-8.38 3.38V263h-12.26v-39.87h12.26v3.17c1.74-1.36 3.51-2.37 5.32-3.03 1.81-.66 3.74-.99 5.81-.99 5.3 0 9.27 1.34 11.9 4.02ZM336.57 225.21c2.7 1.39 4.49 3.23 5.39 5.53.89 2.3 1.34 5.24 1.34 8.8v23.45h-12.26v-3.24c-1.64 1.5-3.26 2.57-4.86 3.2-1.6.63-3.36.95-5.28.95-4.51 0-8.04-1.18-10.6-3.56-2.56-2.37-3.84-5.67-3.84-9.9s1.3-7.56 3.91-9.86c2.61-2.3 6.23-3.45 10.88-3.45 3.85 0 7.11.7 9.79 2.11-.05-1.31-.25-2.36-.6-3.13s-1.06-1.37-2.11-1.8c-1.06-.42-2.59-.63-4.61-.63h-8.03v-10.56h9.09c5.16 0 9.1.69 11.8 2.08Zm-5.53 26.02v-3.73c-2.25-1.08-4.53-1.62-6.83-1.62-1.69 0-3.01.36-3.94 1.09-.94.73-1.41 1.84-1.41 3.35s.4 2.63 1.2 3.24c.8.61 1.95.92 3.45.92 2.39 0 4.91-1.08 7.54-3.24ZM355.87 261.16c-2.04-1.83-3.06-4.46-3.06-7.89V203.4h12.26v45.43c0 1.55.26 2.64.77 3.27.52.63 1.45.95 2.82.95 1.55 0 2.93-.19 4.16-.56v10.42c-1.6.33-2.95.58-4.05.74s-2.29.25-3.56.25c-4.18 0-7.29-.92-9.33-2.75Z"/></g><path class="cls-1" d="M109.36 45.34v60.16c-5.97 3.33-12.35 5.87-19.15 7.63-6.8 1.76-13.18 2.64-19.15 2.64-12.62 0-23.33-2.42-32.14-7.26S23.51 96.89 19.11 88.19c-4.4-8.71-6.6-18.83-6.6-30.37s2.13-20.79 6.38-29.49c4.25-8.71 10.76-15.6 19.52-20.69C47.16 2.54 58.05 0 71.06 0c6.46 0 11.91.61 16.36 1.83 4.45 1.22 9.46 3.06 15.04 5.5v23.33c-4.99-2.74-9.9-4.82-14.75-6.24-4.84-1.42-10.39-2.13-16.65-2.13s-12.25 1.49-17.1 4.48c-4.84 2.98-8.51 7.14-11.01 12.47-2.49 5.33-3.74 11.37-3.74 18.12 0 10.96 2.79 19.71 8.36 26.27 5.58 6.55 13.4 9.83 23.48 9.83 4.5 0 8.66-.68 12.47-2.05V67.93H55.79v-22.6h53.56ZM31.44 254.95c-8.61-5.04-15.07-11.93-19.37-20.69-4.31-8.75-6.46-18.66-6.46-29.71s2.15-20.64 6.46-29.35c4.3-8.71 10.76-15.63 19.37-20.76 8.61-5.14 19.08-7.7 31.4-7.7s22.5 2.57 31.11 7.7c8.61 5.14 15.09 12.08 19.44 20.84 4.35 8.76 6.53 18.51 6.53 29.27s-2.18 20.96-6.53 29.71c-4.35 8.76-10.81 15.65-19.37 20.69-8.56 5.04-18.95 7.56-31.18 7.56s-22.79-2.52-31.4-7.56ZM85 230.23c5.28-6.65 7.92-15.36 7.92-26.12 0-6.75-1.17-12.77-3.52-18.05-2.35-5.28-5.8-9.44-10.35-12.47-4.55-3.03-9.96-4.55-16.21-4.55-9.68 0-17.14 3.28-22.38 9.83-5.23 6.56-7.85 15.11-7.85 25.68s2.59 19.39 7.78 25.9c5.18 6.51 12.67 9.76 22.45 9.76s16.87-3.32 22.16-9.98ZM106.35 318.12H75.98v88.63H49.57v-88.63H19.2v-22.6h87.16v22.6ZM84.27 530.89H41.28l-7.78 22.6H7.08l38.88-112.55h33.46l39.03 112.55H92.04l-7.78-22.6Zm-7.63-22.6-13.94-40.5-13.79 40.5h27.73ZM109.36 632.28v60.16c-5.97 3.33-12.35 5.87-19.15 7.63-6.8 1.76-13.18 2.64-19.15 2.64-12.62 0-23.33-2.42-32.14-7.26s-15.41-11.61-19.81-20.32c-4.4-8.7-6.6-18.83-6.6-30.37s2.13-20.79 6.38-29.49c4.25-8.71 10.76-15.6 19.52-20.69 8.75-5.09 19.64-7.63 32.65-7.63 6.46 0 11.91.61 16.36 1.83 4.45 1.22 9.46 3.06 15.04 5.5v23.33c-4.99-2.74-9.9-4.82-14.75-6.24-4.84-1.42-10.39-2.13-16.65-2.13s-12.25 1.49-17.1 4.48c-4.84 2.99-8.51 7.14-11.01 12.47-2.49 5.33-3.74 11.37-3.74 18.12 0 10.96 2.79 19.71 8.36 26.27 5.58 6.55 13.4 9.83 23.48 9.83 4.5 0 8.66-.68 12.47-2.05v-23.48H55.79v-22.6h53.56ZM84.27 824.36H41.28l-7.78 22.6H7.08l38.88-112.55h33.46l39.03 112.55H92.04l-7.78-22.6Zm-7.63-22.6-13.94-40.5-13.79 40.5h27.73Z"/></svg>