<?xml version="1.0" encoding="UTF-8"?>
<svg id="Layer_1" xmlns="http://www.w3.org/2000/svg" version="1.1" viewBox="0 0 768 1024">
  <!-- Generator: Adobe Illustrator 29.1.0, SVG Export Plug-In . SVG Version: 2.1.0 Build 142)  -->
  <defs>
    <style>
      .st0 {
        fill: #141414;
      }

      .st1 {
        fill: #d91f26;
      }

      .st2 {
        opacity: .2;
      }

      .st3 {
        isolation: isolate;
      }
    </style>
  </defs>
  <g id="Layer_11">
    <g class="st2">
      <g class="st3">
        <g class="st3">
          <g class="st3">
            <g class="st3">
              <path class="st0" d="M516.4,403h-29.3l-.4-.7c-1.6-2.8-2.8-5.8-3.6-9-.8-3.2-1.2-6.2-1.2-9,0-5.9,1.2-11,3.4-15.2,2.3-4.2,5.6-7.4,9.8-9.5,4.1-2.1,8.9-3.1,14.3-3.1s9.8,1,13.9,3c4.2,2,7.5,5.2,9.9,9.4,2.4,4.1,3.6,9.3,3.6,15.4s-.3,5.6-.9,7.8c-.6,2.1-1.4,4.4-2.6,7l-.3.8h-13.6l1.1-1.9c1.2-2.2,2.1-4.3,2.7-6.4.6-2.1.9-4.5.9-7.2s-.6-5.1-1.8-7c-1.2-2-2.9-3.5-5.1-4.5-2.2-1-4.8-1.6-7.6-1.6-4.6,0-8.3,1.2-11,3.5s-4,5.4-4,9.6.2,3,.6,4.3h8.4v-12.6h12.8v26.9h0ZM488.7,400.3h25.1v-21.6h-7.6v12.6h-12.9l-.3-.9c-.7-1.9-1-3.9-1-6.1,0-4.9,1.7-8.9,4.9-11.6,3.2-2.7,7.5-4.1,12.7-4.1s6.2.6,8.8,1.8c2.6,1.2,4.7,3.1,6.2,5.5s2.2,5.2,2.2,8.4-.3,5.6-1,7.9c-.5,1.6-1.1,3.3-1.9,5h7.6c.9-2.1,1.6-4.1,2.1-5.8.5-1.9.8-4.3.8-7.1,0-5.6-1.1-10.4-3.3-14.1s-5.1-6.5-8.8-8.3-8-2.8-12.8-2.8-9.4,1-13.2,2.8c-3.7,1.9-6.6,4.7-8.6,8.4-2.1,3.8-3.1,8.5-3.1,13.9s.4,5.4,1.2,8.3c.7,2.7,1.7,5.3,3,7.7h0ZM536,507.5h-12.8v-13.7h-40.1v-14.6h40.1v-13.7h12.8v42.1h0ZM525.8,504.9h7.6v-36.8h-7.6v13.7h-40.1v9.3h40.1v13.7h0ZM483.1,563v-14.7l10.2-3.5v-17.6l-10.2-3.5v-14.7l53.5,18.5v17l-53.5,18.6h0ZM485.7,550.2v9.2l48.3-16.8v-13.3l-48.3-16.7v9.2l10.2,3.5v21.3l-10.2,3.5h0ZM503.5,544.1v-16.2l23.7,8.1-23.7,8.2h0ZM506.1,531.6v8.9l13-4.5-13-4.4h0ZM516.4,610.7h-29.3l-.4-.7c-1.6-2.8-2.8-5.8-3.6-9-.8-3.2-1.2-6.2-1.2-9,0-5.9,1.2-11,3.4-15.2,2.3-4.2,5.6-7.4,9.8-9.5,4.1-2.1,8.9-3.1,14.3-3.1s9.8,1,13.9,3c4.2,2,7.5,5.2,9.9,9.3s3.6,9.3,3.6,15.4-.3,5.6-.9,7.8c-.6,2.1-1.4,4.4-2.6,7l-.3.8h-13.6l1.1-1.9c1.2-2.2,2.1-4.3,2.7-6.4.6-2.1.9-4.5.9-7.2s-.6-5.1-1.8-7c-1.2-2-2.9-3.5-5.1-4.5-2.2-1-4.8-1.6-7.6-1.6-4.6,0-8.3,1.2-11,3.5s-4,5.4-4,9.6.2,3,.6,4.3h8.4v-12.5h12.8v26.9h0ZM488.7,608h25.1v-21.6h-7.6v12.5h-12.9l-.3-.9c-.7-1.9-1-3.9-1-6.1,0-4.9,1.7-8.9,4.9-11.6,3.2-2.7,7.5-4.1,12.7-4.1s6.2.6,8.8,1.8c2.6,1.2,4.7,3.1,6.2,5.5s2.2,5.2,2.2,8.4-.3,5.6-1,7.9c-.5,1.6-1.1,3.3-1.9,5h7.6c.9-2.1,1.6-4.1,2.1-5.8.5-1.9.8-4.3.8-7.1,0-5.6-1.1-10.4-3.3-14.1-2.2-3.7-5.1-6.5-8.8-8.3s-8-2.8-12.8-2.8-9.4,1-13.2,2.8c-3.7,1.9-6.6,4.7-8.6,8.4-2.1,3.8-3.1,8.4-3.1,13.9s.4,5.4,1.2,8.3c.7,2.7,1.7,5.3,3,7.7v.2h0ZM483.1,667.6v-14.7l10.2-3.5v-17.6l-10.2-3.5v-14.7l53.5,18.5v17l-53.5,18.6h0ZM485.7,654.7v9.2l48.3-16.8v-13.3l-48.3-16.7v9.2l10.2,3.5v21.3l-10.2,3.5h0ZM503.5,648.6v-16.2l23.7,8.1-23.7,8.2h0ZM506.1,636.1v8.9l13-4.5-13-4.4h0Z"/>
            </g>
          </g>
        </g>
      </g>
      <path class="st0" d="M511.3,462.9h-.4c-.7,0-1.2-.3-1.5-.9l-.3-.8.8-.8h.2c5.8-2.4,11.1-8.3,13-14.4,2.5-8.3-.5-19.8-9-23.6-4.3-1.9-9.1-1.3-12.9,1.5-3.8,2.9-5.7,7.3-5.1,12,.6,4.5,3.5,8.3,7.8,10.1,4.4,1.9,9.3,1.3,13.1-1.5l1-.7.8,1c.7.9,0,2-.6,2.9-.4.6-.9,1.3-1.1,1.6-7.3,9.3-20.7,11.2-30.4,4.3-5.4-3.9-8.9-10.3-9.2-16.8v-2.4c0-2.4.4-3.3,1.5-3.3h.5l2,1.6c1.2-12.8,11.9-23.7,25-24.8,11.8-1,22.3,4.9,27.5,15.5,5.1,10.5,3.4,22.4-4.6,31-4,4.3-11.7,8.8-18.2,8.8v-.3h0ZM509,418.6c2.1,0,4.2.4,6.2,1.3,9.8,4.4,13.3,17.4,10.4,26.8-1.4,4.6-4.7,9.2-8.7,12.4,4.1-1.5,8.1-4.1,10.6-6.8,7.2-7.8,8.8-18.5,4.1-28-4.7-9.6-14.2-15-24.9-14-12.6,1.1-22.8,12.3-22.7,24.9v2.8l-3.9-3.2v1.8c.2,5.6,3.3,11.3,8.1,14.7,8,5.7,18.8,4.6,25.5-2.3-3.5,1.1-7.3.9-10.8-.6-5.1-2.2-8.6-6.7-9.3-12.1-.7-5.6,1.6-11,6.1-14.4,2.8-2.1,6-3.1,9.3-3.1v-.2h0Z"/>
      <path class="st0" d="M509.1,444.4c-2.1,0-4.1-.6-5.9-1.9-2.8-2.1-4.4-5.4-4.1-8.8.2-3.4,2.2-6.5,5.2-8.1s6.6-1.6,9.7,0c2.2,1.2,3.8,3.1,4.7,5.4l.4-.4.2,2.8c.3,4-1.7,7.7-5.1,9.7-1.6.9-3.2,1.3-4.9,1.3h-.2ZM509,426.9c-1.2,0-2.4.3-3.5.9-2.2,1.2-3.7,3.5-3.8,6-.2,2.6,1,5,3.1,6.5,2.4,1.7,5.4,1.9,8,.4,2.3-1.3,3.7-3.7,3.8-6.3v-.9c-.3-2.4-1.7-4.6-3.9-5.8-1.1-.6-2.4-.9-3.6-.9h-.1Z"/>
    </g>
    <g class="st2">
      <g class="st3">
        <g class="st3">
          <g class="st3">
            <g class="st3">
              <path class="st0" d="M113,384.2v32.2c-3.2,1.8-6.6,3.1-10.3,4.1-3.6.9-7.1,1.4-10.3,1.4-6.8,0-12.5-1.3-17.2-3.9s-8.3-6.2-10.6-10.9c-2.4-4.7-3.5-10.1-3.5-16.3s1.1-11.1,3.4-15.8c2.3-4.7,5.8-8.4,10.5-11.1s10.5-4.1,17.5-4.1,6.4.3,8.8,1,5.1,1.6,8.1,2.9v12.5c-2.7-1.5-5.3-2.6-7.9-3.3-2.6-.8-5.6-1.1-8.9-1.1s-6.6.8-9.2,2.4-4.6,3.8-5.9,6.7c-1.3,2.9-2,6.1-2,9.7,0,5.9,1.5,10.6,4.5,14.1s7.2,5.3,12.6,5.3,4.6-.4,6.7-1.1v-12.6h-14.9v-12.1h28.7,0,0ZM236.8,373.1h-16.3v47.5h-14.2v-47.5h-16.3v-12.1h46.7v12.1h.1ZM283.7,408.5h-23l-4.2,12.1h-14.2l20.8-60.3h17.9l20.9,60.3h-14.2l-4.2-12.1h.2ZM279.6,396.4l-7.5-21.7-7.4,21.7h14.9ZM359,384.2v32.2c-3.2,1.8-6.6,3.1-10.3,4.1-3.6.9-7.1,1.4-10.3,1.4-6.8,0-12.5-1.3-17.2-3.9s-8.3-6.2-10.6-10.9c-2.4-4.7-3.5-10.1-3.5-16.3s1.1-11.1,3.4-15.8c2.3-4.7,5.8-8.4,10.5-11.1s10.5-4.1,17.5-4.1,6.4.3,8.8,1,5.1,1.6,8.1,2.9v12.5c-2.7-1.5-5.3-2.6-7.9-3.3-2.6-.8-5.6-1.1-8.9-1.1s-6.6.8-9.2,2.4-4.6,3.8-5.9,6.7c-1.3,2.9-2,6.1-2,9.7,0,5.9,1.5,10.6,4.5,14.1s7.2,5.3,12.6,5.3,4.6-.4,6.7-1.1v-12.6h-14.9v-12.1h28.7-.1ZM407.5,408.5h-23l-4.2,12.1h-14.2l20.8-60.3h17.9l20.9,60.3h-14.2l-4.2-12.1h.2ZM403.4,396.4l-7.5-21.7-7.4,21.7h14.9Z"/>
            </g>
          </g>
        </g>
      </g>
      <path class="st0" d="M183.9,389.3c.2-7.2-4.7-16.1-9.9-20.9-21.1-19.5-54.9-2.7-52.4,25.9,1.4,15.8,15.1,28.5,31,28.3l-3.6,4.3c0,.1,2.2.3,2.4.3h2.8c7.4-.3,14.4-4.3,18.7-10.2,7.8-10.8,5.6-25.7-4.8-33.9-.4-.3-3-2.2-3.3-2,7.6,10.3,1.6,25.4-11.2,27.1-12.9,1.7-22.9-11.6-17.6-23.5,4.8-10.7,19.2-14.8,29.8-11.4,7.5,2.4,14.9,9,17.9,16.3v-.4h.2Z"/>
      <path class="st0" d="M150.8,381.1c-7.4.6-11.7,8.8-8.1,15.3,3.6,6.7,13.1,7.2,17.5,1.1,5.3-7.2-.5-17.2-9.4-16.4Z"/>
    </g>
    <path class="st1" d="M99.3,478.4h-13.2v38.4h-11.4v-38.4h-13.2v-9.8h37.8v9.8ZM148.8,468.6v48.2h-11.4v-19.3h-19v19.3h-11.4v-48.2h11.4v19.1h19v-19.1h11.4ZM189.7,469.8v6.8h-19.2c-.7,0-1.2.5-1.2,1.2v10.3c0,.7.5,1.2,1.2,1.2h16v6.8h-16c-.7,0-1.2.5-1.2,1.2v10.5c0,.7.5,1.2,1.2,1.2h19.5v6.8h-29.8v-45.9h29.5M190.9,468.6h-31.9v48.2h32.2v-9.2h-20.8v-10.5h17.3v-9.2h-17.3v-10.3h20.4v-9.2.2h.1ZM75.4,553.8v10.6h17.3v9.8h-17.3v18.1h-11.4v-48.2h31.9v9.8h-20.5,0ZM120.3,574.8h-5.4v17.5h-11.4v-48.2h19.5c12.2,0,18.4,5.2,18.4,15.5s-3.2,12.1-9.6,14.1l11.5,18.7h-12.7l-10.3-17.5h0ZM114.9,565.1h8.1c4.5,0,6.8-1.9,6.8-5.6s-.5-3.5-1.6-4.4-2.8-1.4-5.2-1.4h-8.1v11.4ZM182.9,583.1v9.2h-32.2v-48.2h31.9v9.2h-20.4v10.3h17.3v9.2h-17.3v10.5h20.8v-.2h-.1ZM232.6,545.2v45.9h-11.3l-17-29c-.2-.4-.6-.6-1.1-.6h-.3c-.5,0-.9.6-.9,1.2v28.5h-9.1v-45.9h11.3l17,29c.2.4.6.6,1.1.6h.3c.5,0,.9-.6.9-1.2v-28.5h9.1M233.7,544h-11.4v29.7l-17.3-29.7h-13.2v48.2h11.4v-29.7l17.3,29.7h13.2v-48.2h0ZM266.5,544.3c2.2,0,4.1.2,5.8.5,1.4.3,3,.8,4.7,1.4v7.3c-3.2-1.3-6.7-2-10.2-2s-5.6.7-8,2.2-4.1,3.5-5.4,6-1.9,5.3-1.9,8.4c0,4.9,1.4,9,4,12,2.7,3.1,6.4,4.7,11,4.7s4.3-.3,6.4-1c1.6-.5,3.4-1.3,5.1-2.1l2.6,7c-2.1,1-4.3,1.8-6.6,2.3-2.6.6-5.1,1-7.5,1-8.1,0-14.2-2.1-18.2-6.3s-6-10.1-6-17.6.9-8.7,2.7-12.3,4.5-6.4,8.1-8.5,8.1-3.2,13.3-3.2M266.5,543.1c-5.4,0-10.1,1.1-13.9,3.3-3.8,2.2-6.7,5.2-8.6,9-1.9,3.8-2.8,8.1-2.8,12.8,0,7.8,2.1,13.9,6.3,18.4s10.6,6.7,19,6.7,5.1-.3,7.8-1,5.3-1.6,7.8-2.9l-3.4-9.4c-2.2,1.2-4.2,2-6.2,2.7-2,.6-3.9.9-6,.9-4.3,0-7.7-1.4-10.2-4.2-2.4-2.8-3.7-6.6-3.7-11.2s.6-5.5,1.8-7.9,2.8-4.1,5-5.5,4.6-2,7.4-2c4,0,7.8.9,11.4,2.6v-9.9c-2-.9-3.9-1.4-5.7-1.8s-3.8-.5-6-.5h0ZM330.1,545.2v45.9h-9.1v-18.1c0-.7-.5-1.2-1.2-1.2h-19c-.7,0-1.2.5-1.2,1.2v18.1h-9.1v-45.9h9.1v17.9c0,.7.5,1.2,1.2,1.2h19c.7,0,1.2-.5,1.2-1.2v-17.9h9.1M331.3,544h-11.4v19.1h-19v-19.1h-11.4v48.2h11.4v-19.3h19v19.3h11.4v-48.2h0ZM114.3,619.4v48.2h-11.4v-31.8l-10.9,15.8h-5.7l-10.7-15.7v31.7h-11.4v-48.2h13.3l11.9,17.8,11.9-17.8h13.3-.3ZM132.8,665.5c-3.7-2.2-6.6-5.2-8.4-9s-2.8-8.1-2.8-12.9.9-8.9,2.8-12.7,4.7-6.8,8.4-9,8.3-3.4,13.6-3.4,9.7,1.1,13.5,3.4c3.7,2.2,6.6,5.3,8.4,9.1s2.8,8,2.8,12.7-1,9.1-2.8,12.9-4.7,6.8-8.4,9-8.2,3.3-13.5,3.3-9.9-1.1-13.6-3.3h0ZM156,654.8c2.3-2.9,3.4-6.7,3.4-11.3s-.5-5.5-1.5-7.8-2.5-4.1-4.5-5.4-4.3-2-7-2c-4.2,0-7.4,1.4-9.7,4.3-2.3,2.8-3.4,6.6-3.4,11.1s1.1,8.4,3.4,11.2c2.2,2.8,5.5,4.2,9.7,4.2s7.3-1.4,9.6-4.3ZM220.4,619.4v48.2h-13.2l-17.3-29.7v29.7h-11.4v-48.2h13.2l17.3,29.7v-29.7h11.4ZM237.4,667.9c-2.9-.6-5.6-1.5-8.3-2.8v-10.3c5.4,2.8,11.3,4.3,17.7,4.3s4.3-.4,5.5-1.3,1.7-2,1.7-3.4-.5-2.5-1.5-3.2-2.9-1.4-5.6-2.1l-4.3-1.2c-2.6-.7-4.7-1.5-6.6-2.5-1.8-1-3.5-2.4-4.8-4.3-1.3-1.9-2-4.3-2-7.4,0-5,1.5-8.7,4.5-11.3s7.3-3.9,12.8-3.9,6.2.3,8.7.9c2.5.6,5.1,1.5,7.7,2.7v9.9c-4.9-2.6-10.3-3.9-16.4-3.9s-3.8.4-4.7,1.2-1.4,1.8-1.4,3.3.2,1.7.7,2.3c.4.6,1.1,1.1,2,1.4s2.2.8,4,1.4l4.4,1.2c2.7.8,5.1,1.6,7,2.7,2,1,3.6,2.6,4.9,4.5,1.3,2,1.9,4.5,1.9,7.7,0,4.6-1.7,8.3-5,10.9-3.3,2.7-7.8,4-13.6,4s-6.6-.3-9.5-.9h.2ZM307.4,620.6v7.4h-12c-.7,0-1.2.5-1.2,1.2v37.3h-9.1v-37.3c0-.7-.5-1.2-1.2-1.2h-12v-7.4h35.4M308.6,619.4h-37.8v9.8h13.2v38.4h11.4v-38.4h13.2v-9.8h0ZM346.9,620.6v6.8h-19.2c-.7,0-1.2.5-1.2,1.2v10.3c0,.7.5,1.2,1.2,1.2h16v6.8h-16c-.7,0-1.2.5-1.2,1.2v10.5c0,.7.5,1.2,1.2,1.2h19.5v6.8h-29.8v-45.9h29.5M348.1,619.4h-31.9v48.2h32.2v-9.2h-20.8v-10.5h17.3v-9.2h-17.3v-10.3h20.4v-9.2.2h0ZM376.9,620.6c5.8,0,10.2,1.2,13,3.6,2.8,2.4,4.1,5.8,4.1,10.7s-2.9,11-8.8,13c-.3,0-.6.4-.8.7v1.1l10.4,16.8h-9.9l-10-16.8c-.2-.4-.6-.6-1.1-.6h-5.4c-.7,0-1.2.5-1.2,1.2v16.2h-9.1v-45.9h18.3M368.8,641.7h8.1c7,0,8-4.3,8-6.8s-.7-4.1-2.1-5.3c-1.4-1.1-3.3-1.7-5.9-1.7h-8.1c-.7,0-1.2.5-1.2,1.2v11.4c0,.7.5,1.2,1.2,1.2M376.9,619.4h-19.5v48.2h11.4v-17.5h5.4l10.3,17.5h12.7l-11.5-18.7c6.4-2.1,9.6-6.8,9.6-14.1s-6.1-15.5-18.4-15.5h0ZM368.8,640.5v-11.4h8.1c2.4,0,4.1.5,5.2,1.4s1.6,2.4,1.6,4.4c0,3.8-2.3,5.6-6.8,5.6h-8.1Z"/>
  </g>
</svg>