<?xml version="1.0" encoding="UTF-8"?>
<svg id="Layer_1" xmlns="http://www.w3.org/2000/svg" version="1.1" viewBox="0 0 360 740">
  <!-- Generator: Adobe Illustrator 29.1.0, SVG Export Plug-In . SVG Version: 2.1.0 Build 142)  -->
  <defs>
    <style>
      .st0 {
        fill: #141414;
      }

      .st1 {
        fill: #d91f26;
      }

      .st2 {
        opacity: .2;
      }

      .st3 {
        isolation: isolate;
      }
    </style>
  </defs>
  <g id="Layer_11">
    <g class="st2">
      <g class="st3">
        <g class="st3">
          <g class="st3">
            <g class="st3">
              <path class="st0" d="M285.3,305h-17l-.2-.4c-.9-1.6-1.6-3.4-2.1-5.2-.5-1.8-.7-3.6-.7-5.2,0-3.4.7-6.4,2-8.8s3.2-4.3,5.7-5.5c2.4-1.2,5.2-1.8,8.3-1.8s5.7.6,8.1,1.8c2.4,1.2,4.4,3,5.8,5.4s2.1,5.4,2.1,9-.2,3.3-.5,4.5-.8,2.6-1.5,4l-.2.5h-7.9l.6-1.1c.7-1.3,1.2-2.5,1.6-3.7s.5-2.6.5-4.2-.4-2.9-1.1-4.1c-.7-1.1-1.7-2-3-2.6s-2.8-.9-4.4-.9c-2.7,0-4.8.7-6.4,2s-2.3,3.1-2.3,5.6.1,1.7.3,2.5h4.9v-7.3h7.5v15.6h0ZM269.2,303.5h14.6v-12.5h-4.4v7.3h-7.5l-.2-.5c-.4-1.1-.6-2.3-.6-3.5,0-2.9,1-5.1,2.9-6.7s4.3-2.4,7.4-2.4,3.6.4,5.1,1c1.5.7,2.7,1.8,3.6,3.2.9,1.4,1.3,3,1.3,4.9s-.2,3.2-.6,4.6c-.3,1-.6,1.9-1.1,2.9h4.4c.5-1.2.9-2.4,1.2-3.4.3-1.1.5-2.5.5-4.1,0-3.3-.6-6-1.9-8.2-1.2-2.1-3-3.8-5.1-4.8-2.2-1.1-4.7-1.6-7.4-1.6s-5.5.6-7.6,1.6c-2.1,1.1-3.8,2.7-5,4.9-1.2,2.2-1.8,4.9-1.8,8.1s.2,3.1.7,4.8c.4,1.6,1,3.1,1.7,4.5h-.2ZM296.7,365.6h-7.5v-8h-23.3v-8.5h23.3v-8h7.5v24.4h0ZM290.8,364.1h4.4v-21.4h-4.4v8h-23.3v5.4h23.3v8ZM266,397.8v-8.5l5.9-2v-10.2l-5.9-2v-8.5l31,10.7v9.9l-31,10.8h0v-.2ZM267.5,390.4v5.3l28-9.7v-7.7l-28-9.7v5.3l5.9,2v12.4l-5.9,2h0ZM277.8,386.8v-9.4l13.7,4.7-13.7,4.7h0ZM279.3,379.6v5.1l7.5-2.6-7.5-2.6h0ZM285.3,425.4h-17l-.2-.4c-.9-1.6-1.6-3.4-2.1-5.2-.5-1.8-.7-3.6-.7-5.2,0-3.4.7-6.4,2-8.8s3.2-4.3,5.7-5.5c2.4-1.2,5.2-1.8,8.3-1.8s5.7.6,8.1,1.8c2.4,1.2,4.4,3,5.8,5.4s2.1,5.4,2.1,9-.2,3.3-.5,4.5-.8,2.6-1.5,4l-.2.5h-7.9l.6-1.1c.7-1.3,1.2-2.5,1.6-3.7s.5-2.6.5-4.2-.4-2.9-1.1-4.1c-.7-1.1-1.7-2-3-2.6s-2.8-.9-4.4-.9c-2.7,0-4.8.7-6.4,2s-2.3,3.1-2.3,5.6.1,1.7.3,2.5h4.9v-7.3h7.5v15.6h0ZM269.2,423.9h14.6v-12.5h-4.4v7.3h-7.5l-.2-.5c-.4-1.1-.6-2.3-.6-3.5,0-2.9,1-5.1,2.9-6.7s4.3-2.4,7.4-2.4,3.6.4,5.1,1c1.5.7,2.7,1.8,3.6,3.2.9,1.4,1.3,3,1.3,4.9s-.2,3.2-.6,4.6c-.3,1-.6,1.9-1.1,2.9h4.4c.5-1.2.9-2.4,1.2-3.4.3-1.1.5-2.5.5-4.1,0-3.3-.6-6-1.9-8.2-1.2-2.1-3-3.8-5.1-4.8-2.2-1.1-4.7-1.6-7.4-1.6s-5.5.6-7.6,1.6c-2.1,1.1-3.8,2.7-5,4.9-1.2,2.2-1.8,4.9-1.8,8.1s.2,3.1.7,4.8c.4,1.6,1,3.1,1.7,4.5h-.2ZM266,458.4v-8.5l5.9-2v-10.2l-5.9-2v-8.5l31,10.7v9.9l-31,10.8h0v-.2ZM267.5,451v5.3l28-9.7v-7.7l-28-9.7v5.3l5.9,2v12.4l-5.9,2h0ZM277.8,447.4v-9.4l13.7,4.7-13.7,4.7h0ZM279.3,440.2v5.1l7.5-2.6-7.5-2.6h0Z"/>
            </g>
          </g>
        </g>
      </g>
      <path class="st0" d="M282.4,339.7h-.3c-.4,0-.7-.2-.9-.5l-.2-.5.5-.5h.1c3.4-1.4,6.5-4.8,7.5-8.3,1.5-4.8-.3-11.5-5.2-13.7-2.5-1.1-5.3-.8-7.5.9-2.2,1.6-3.3,4.2-3,7,.4,2.6,2,4.8,4.5,5.8,2.5,1.1,5.4.8,7.6-.9l.6-.4.5.6c.4.5,0,1.1-.3,1.7-.2.4-.5.8-.6.9-4.2,5.4-12,6.5-17.6,2.5-3.1-2.3-5.2-6-5.3-9.7v-1.4c0-1.4.2-1.9.9-1.9h.3l1.2,1c.7-7.4,6.9-13.7,14.5-14.4,6.8-.6,12.9,2.9,15.9,9s2,13-2.6,18c-2.3,2.5-6.8,5.1-10.6,5.1h0v-.3ZM281,314c1.2,0,2.5.3,3.6.8,5.7,2.6,7.7,10.1,6,15.5-.8,2.7-2.7,5.3-5,7.2,2.4-.9,4.7-2.4,6.1-4,4.2-4.5,5.1-10.7,2.4-16.2s-8.3-8.7-14.4-8.1c-7.3.6-13.2,7.1-13.2,14.4v1.6l-2.3-1.9v1.1c.1,3.2,1.9,6.5,4.7,8.5,4.6,3.3,10.9,2.7,14.8-1.4-2,.6-4.2.5-6.3-.4-3-1.3-5-3.9-5.4-7-.4-3.2.9-6.4,3.6-8.4,1.6-1.2,3.5-1.8,5.4-1.8h0Z"/>
      <path class="st0" d="M281,329c-3.2,0-5.8-2.6-5.8-5.9v-.4c.1-2,1.2-3.8,3-4.7,1.7-1,3.8-.9,5.6,0,1.3.7,2.2,1.8,2.7,3.1l.2-.2v1.6c.3,2.3-.8,4.5-2.9,5.6-.9.5-1.9.8-2.9.8h0ZM281,318.9c-.7,0-1.4.2-2,.5-1.3.7-2.1,2-2.2,3.5,0,1.5.6,2.9,1.8,3.8,1.4,1,3.1,1.1,4.6.3,1.3-.7,2.2-2.1,2.2-3.6v-.5c-.1-1.4-1-2.7-2.3-3.4-.7-.4-1.4-.5-2.1-.5h0Z"/>
    </g>
    <g class="st2">
      <g class="st3">
        <g class="st3">
          <g class="st3">
            <g class="st3">
              <path class="st0" d="M51.4,294.1v18.7c-1.9,1-3.9,1.8-6,2.4-2.1.5-4.1.8-6,.8-3.9,0-7.2-.8-10-2.3s-4.8-3.6-6.2-6.3c-1.4-2.7-2-5.9-2-9.4s.7-6.5,2-9.2,3.3-4.9,6.1-6.4c2.7-1.6,6.1-2.4,10.1-2.4s3.7.2,5.1.6c1.4.4,2.9,1,4.7,1.7v7.2c-1.5-.9-3.1-1.5-4.6-1.9s-3.2-.7-5.2-.7-3.8.5-5.3,1.4-2.6,2.2-3.4,3.9c-.8,1.7-1.2,3.5-1.2,5.6,0,3.4.9,6.1,2.6,8.2,1.7,2,4.2,3.1,7.3,3.1s2.7-.2,3.9-.6v-7.3h-8.6v-7h16.7ZM123.2,287.7h-9.4v27.5h-8.2v-27.5h-9.4v-7h27.1v7h0ZM150.4,308.2h-13.4l-2.4,7h-8.2l12.1-35h10.4l12.1,35h-8.2l-2.4-7h0ZM148,301.2l-4.3-12.6-4.3,12.6h8.6ZM194.1,294.1v18.7c-1.9,1-3.9,1.8-5.9,2.4-2.1.5-4.1.8-5.9.8-3.9,0-7.2-.8-10-2.3s-4.8-3.6-6.2-6.3c-1.4-2.7-2.1-5.9-2.1-9.4s.7-6.5,2-9.2,3.3-4.9,6.1-6.4c2.7-1.6,6.1-2.4,10.1-2.4s3.7.2,5.1.6c1.4.4,2.9,1,4.7,1.7v7.2c-1.6-.9-3.1-1.5-4.6-1.9s-3.2-.7-5.2-.7-3.8.5-5.3,1.4-2.6,2.2-3.4,3.9c-.8,1.7-1.2,3.5-1.2,5.6,0,3.4.9,6.1,2.6,8.2,1.7,2,4.2,3.1,7.3,3.1s2.7-.2,3.9-.6v-7.3h-8.6v-7h16.6,0ZM222.2,308.2h-13.4l-2.4,7h-8.2l12.1-35h10.4l12.1,35h-8.2l-2.4-7h0ZM219.8,301.2l-4.3-12.6-4.3,12.6h8.6Z"/>
            </g>
          </g>
        </g>
      </g>
      <path class="st0" d="M92.5,297c0-4.2-2.7-9.3-5.7-12.1-12.2-11.3-31.8-1.6-30.4,15,.8,9.2,8.8,16.5,18,16.4l-2.1,2.5s1.3.2,1.4.2h1.6c4.3-.2,8.4-2.5,10.8-5.9,4.5-6.3,3.2-14.9-2.8-19.6-.2-.2-1.7-1.3-1.9-1.2,4.4,6,.9,14.7-6.5,15.7-7.5,1-13.3-6.7-10.2-13.6,2.8-6.2,11.2-8.6,17.3-6.6,4.4,1.4,8.7,5.2,10.4,9.5v-.2h0Z"/>
      <path class="st0" d="M73.3,292.3c-4.3.4-6.8,5.1-4.7,8.9,2.1,3.9,7.6,4.2,10.2.6,3.1-4.2-.3-10-5.4-9.5h0Z"/>
    </g>
    <path class="st1" d="M43.4,348.7h-7.6v22.3h-6.6v-22.3h-7.6v-5.7h21.9v5.7h0ZM72.2,343v28h-6.6v-11.2h-11v11.2h-6.6v-28h6.6v11.1h11v-11.1h6.6ZM95.8,343.7v3.9h-11.2c-.4,0-.7.3-.7.7v6c0,.4.3.7.7.7h9.3v3.9h-9.3c-.4,0-.7.3-.7.7v6.1c0,.4.3.7.7.7h11.3v3.9h-17.3v-26.6h17.1M96.6,343h-18.5v28h18.7v-5.3h-12.1v-6.1h10v-5.3h-10v-6h11.8v-5.3h0ZM29.6,392.4v6.1h10v5.7h-10v10.5h-6.6v-28h18.5v5.7h-11.9ZM55.6,404.6h-3.1v10.1h-6.6v-28h11.3c7.1,0,10.6,3,10.6,9s-1.8,7-5.6,8.2l6.7,10.8h-7.4l-6-10.1h0ZM52.5,399h4.7c2.6,0,3.9-1.1,3.9-3.3s-.3-2-1-2.5-1.6-.8-3-.8h-4.7v6.6h0ZM91.9,409.4v5.3h-18.7v-28h18.5v5.3h-11.8v6h10v5.3h-10v6.1h12.1,0ZM120.7,387.5v26.6h-6.5l-9.8-16.8c0-.2-.4-.4-.6-.4h-.2c-.3,0-.5.4-.5.7v16.5h-5.3v-26.6h6.5l9.8,16.8c0,.2.4.4.6.4h.2c.3,0,.5-.4.5-.7v-16.5h5.3M121.4,386.8h-6.6v17.2l-10-17.2h-7.6v28h6.6v-17.2l10,17.2h7.6v-28ZM140.4,386.9c1.3,0,2.4.1,3.4.3.8.2,1.8.5,2.7.8v4.2c-1.9-.8-3.9-1.1-5.9-1.1s-3.3.4-4.6,1.3-2.4,2-3.2,3.5-1.1,3.1-1.1,4.9c0,2.9.8,5.2,2.3,7s3.7,2.7,6.4,2.7,2.5-.2,3.7-.6c.9-.3,2-.7,3-1.2l1.5,4.1c-1.2.6-2.5,1-3.8,1.3-1.5.4-3,.6-4.3.6-4.7,0-8.2-1.2-10.5-3.7-2.3-2.4-3.5-5.8-3.5-10.2s.5-5,1.6-7.1,2.6-3.7,4.7-5c2.1-1.2,4.7-1.9,7.7-1.9M140.4,386.2c-3.2,0-5.9.6-8.1,1.9s-3.9,3-5,5.2c-1.1,2.2-1.7,4.7-1.7,7.4,0,4.5,1.2,8.1,3.7,10.6,2.5,2.6,6.1,3.9,11.1,3.9s2.9-.2,4.5-.6,3.1-1,4.5-1.7l-2-5.4c-1.3.7-2.5,1.2-3.6,1.5-1.1.4-2.3.5-3.5.5-2.5,0-4.5-.8-5.9-2.5-1.4-1.6-2.1-3.8-2.1-6.5s.3-3.2,1-4.6,1.6-2.4,2.9-3.2,2.7-1.2,4.3-1.2c2.3,0,4.5.5,6.6,1.5v-5.8c-1.2-.5-2.3-.8-3.3-1.1s-2.2-.3-3.5-.3h0v.4ZM177.2,387.5v26.6h-5.3v-10.5c0-.4-.3-.7-.7-.7h-11.1c-.4,0-.7.3-.7.7v10.5h-5.3v-26.6h5.3v10.4c0,.4.3.7.7.7h11.1c.4,0,.7-.3.7-.7v-10.4h5.3M177.9,386.8h-6.6v11.1h-11.1v-11.1h-6.6v28h6.6v-11.2h11.1v11.2h6.6v-28ZM52.1,430.5v28h-6.6v-18.5l-6.3,9.2h-3.3l-6.2-9.1v18.4h-6.6v-28h7.7l6.9,10.4,6.9-10.4h7.7-.2ZM62.9,457.2c-2.2-1.3-3.8-3-4.9-5.2-1.1-2.2-1.6-4.7-1.6-7.5s.5-5.2,1.6-7.4,2.7-3.9,4.9-5.2c2.2-1.3,4.8-2,7.9-2s5.7.6,7.8,2c2.2,1.3,3.8,3,4.9,5.3s1.7,4.6,1.7,7.4-.6,5.3-1.7,7.5-2.7,3.9-4.9,5.2c-2.2,1.3-4.8,1.9-7.8,1.9s-5.7-.6-7.9-1.9h0ZM76.3,451c1.3-1.7,2-3.9,2-6.6s-.3-3.2-.9-4.5-1.4-2.4-2.6-3.1-2.5-1.1-4.1-1.1c-2.4,0-4.3.8-5.6,2.5-1.3,1.6-2,3.8-2,6.5s.6,4.9,2,6.5c1.3,1.6,3.2,2.5,5.7,2.5s4.2-.8,5.6-2.5h0v-.2ZM113.7,430.5v28h-7.6l-10-17.2v17.2h-6.6v-28h7.6l10,17.2v-17.2h6.6ZM123.5,458.6c-1.7-.3-3.3-.9-4.8-1.6v-6c3.1,1.6,6.6,2.5,10.3,2.5s2.5-.2,3.2-.7,1-1.1,1-2-.3-1.4-.9-1.9-1.7-.8-3.2-1.2l-2.5-.7c-1.5-.4-2.7-.9-3.8-1.5-1.1-.6-2-1.4-2.8-2.5s-1.2-2.5-1.2-4.3c0-2.9.9-5.1,2.6-6.6,1.8-1.5,4.2-2.3,7.4-2.3s3.6.2,5.1.5,2.9.9,4.5,1.6v5.8c-2.8-1.5-6-2.3-9.5-2.3s-2.2.2-2.7.7-.8,1.1-.8,1.9,0,1,.4,1.3c.2.3.6.6,1.2.8s1.3.5,2.3.8l2.5.7c1.6.5,2.9,1,4.1,1.5,1.1.6,2.1,1.5,2.8,2.6.8,1.2,1.1,2.6,1.1,4.5,0,2.7-1,4.8-2.9,6.3s-4.5,2.3-7.9,2.3-3.8-.2-5.5-.5h0v.3ZM164.1,431.2v4.3h-6.9c-.4,0-.7.3-.7.7v21.6h-5.3v-21.6c0-.4-.3-.7-.7-.7h-6.9v-4.3h20.5M164.8,430.5h-21.9v5.7h7.6v22.3h6.6v-22.3h7.6v-5.7h0ZM187,431.2v3.9h-11.2c-.4,0-.7.3-.7.7v6c0,.4.3.7.7.7h9.3v3.9h-9.3c-.4,0-.7.3-.7.7v6.1c0,.4.3.7.7.7h11.3v3.9h-17.3v-26.6h17.1M187.7,430.5h-18.5v28h18.7v-5.3h-12.1v-6.1h10v-5.3h-10v-6h11.8v-5.3h.1ZM204.4,431.2c3.4,0,5.9.7,7.6,2.1s2.4,3.4,2.4,6.2-1.7,6.4-5.1,7.5c-.2,0-.4.2-.4.4v.6l6,9.7h-5.7l-5.8-9.8c-.1-.2-.4-.3-.6-.3h-3.1c-.4,0-.7.3-.7.7v9.4h-5.3v-26.6h10.6M199.7,443.4h4.7c4.1,0,4.6-2.5,4.6-4s-.4-2.4-1.2-3.1c-.8-.6-1.9-1-3.4-1h-4.7c-.4,0-.7.3-.7.7v6.6c0,.4.3.7.7.7M204.4,430.5h-11.3v28h6.6v-10.1h3.1l6,10.1h7.4l-6.7-10.8c3.7-1.2,5.6-3.9,5.6-8.2s-3.6-9-10.6-9h-.1ZM199.7,442.8v-6.6h4.7c1.4,0,2.4.3,3,.8s.9,1.4.9,2.5c0,2.2-1.3,3.3-3.9,3.3h-4.7Z"/>
  </g>
</svg>