<svg xmlns="http://www.w3.org/2000/svg" viewBox="0 0 1920 1080"><defs><style>.cls-1{fill:#d91f26}.cls-2{fill:#fff}.cls-3{opacity:.2}.cls-4{isolation:isolate}</style></defs><g id="Layer_1"><g class="cls-3"><g class="cls-4"><g class="cls-4"><g class="cls-4"><g class="cls-4"><path class="cls-2" d="M1144.8 314.4h-53.3l-.7-1.2c-2.8-5.1-5-10.6-6.5-16.3-1.5-5.8-2.3-11.3-2.3-16.4 0-10.7 2.1-20 6.3-27.6 4.2-7.6 10.2-13.5 17.7-17.3 7.5-3.8 16.2-5.7 26.1-5.7s17.9 1.8 25.3 5.5c7.6 3.7 13.6 9.4 18 17 4.4 7.5 6.6 17 6.6 28.1s-.5 10.2-1.6 14.1c-1 3.8-2.6 8-4.6 12.7l-.6 1.4h-24.8l1.9-3.5c2.2-3.9 3.8-7.9 4.9-11.7 1.1-3.8 1.7-8.1 1.7-13s-1.1-9.2-3.3-12.8c-2.2-3.6-5.3-6.3-9.3-8.2-4.1-1.9-8.7-2.9-13.9-2.9-8.4 0-15.2 2.1-20.1 6.3-4.9 4.2-7.3 9.9-7.3 17.5s.4 5.4 1 7.9h15.2v-22.8h23.4v48.9Zm-50.5-4.8h45.7v-39.3h-13.8v22.8h-23.4l-.6-1.6c-1.2-3.4-1.8-7.1-1.8-11.1 0-9 3-16.1 8.9-21.1 5.8-4.9 13.6-7.5 23.2-7.5s11.2 1.1 15.9 3.3c4.8 2.2 8.6 5.6 11.3 10 2.7 4.4 4 9.5 4 15.3s-.6 10.2-1.8 14.4c-.9 3-2.1 6-3.5 9.1h13.7c1.7-3.9 2.9-7.5 3.8-10.6.9-3.4 1.4-7.8 1.4-12.8 0-10.2-2-18.9-6-25.7-3.9-6.8-9.3-11.8-16-15.1-6.8-3.3-14.6-5-23.2-5s-17.1 1.7-23.9 5.2c-6.7 3.4-12 8.5-15.7 15.3-3.8 6.9-5.7 15.4-5.7 25.3s.7 9.8 2.1 15.2c1.3 4.9 3.1 9.6 5.4 14ZM1180.4 504.5H1157v-25h-73V453h73v-25h23.4v76.5Zm-18.6-4.8h13.8v-67h-13.8v25h-73v17h73v25ZM1084.1 605.6v-26.8l18.6-6.4v-32l-18.6-6.4v-26.8l97.4 33.7v30.9l-97.4 33.8Zm4.7-23.4v16.7l87.9-30.5v-24.2l-87.9-30.4v16.7l18.6 6.4v38.8l-18.6 6.4Zm32.5-11v-29.5l43.1 14.7-43.1 14.8Zm4.7-22.9v16.2l23.6-8.1-23.6-8ZM1144.8 692.2h-53.3l-.7-1.2c-2.8-5.1-5-10.6-6.5-16.3-1.5-5.8-2.3-11.3-2.3-16.4 0-10.7 2.1-20 6.3-27.6 4.2-7.6 10.2-13.5 17.7-17.3 7.5-3.8 16.2-5.7 26.1-5.7s17.9 1.8 25.3 5.5c7.6 3.7 13.6 9.4 18 17 4.4 7.5 6.6 17 6.6 28.1s-.5 10.2-1.6 14.1c-1 3.8-2.6 8-4.6 12.7l-.6 1.4h-24.8l1.9-3.5c2.2-3.9 3.8-7.9 4.9-11.7 1.1-3.8 1.7-8.1 1.7-13s-1.1-9.2-3.3-12.8c-2.2-3.6-5.3-6.3-9.3-8.2-4-1.9-8.7-2.9-13.9-2.9-8.4 0-15.2 2.1-20.1 6.3-4.9 4.2-7.3 9.9-7.3 17.5s.4 5.4 1 7.9h15.2v-22.8h23.4v48.9Zm-50.5-4.7h45.7v-39.3h-13.8V671h-23.4l-.6-1.6c-1.2-3.4-1.8-7.1-1.8-11.1 0-9 3-16.1 8.9-21.1 5.8-4.9 13.6-7.5 23.2-7.5s11.2 1.1 15.9 3.3c4.8 2.2 8.6 5.6 11.3 10 2.7 4.4 4 9.5 4 15.3s-.6 10.2-1.8 14.4c-.9 3-2.1 6-3.5 9.1h13.7c1.7-3.9 2.9-7.5 3.8-10.6.9-3.4 1.4-7.8 1.4-12.8 0-10.2-2-18.9-6-25.7-3.9-6.8-9.3-11.8-16-15.1-6.8-3.3-14.6-5-23.2-5s-17.1 1.7-23.9 5.2c-6.7 3.4-12 8.5-15.7 15.3-3.8 6.9-5.7 15.4-5.7 25.3s.7 9.8 2.1 15.2c1.3 4.9 3.1 9.6 5.4 14ZM1084.1 795.8V769l18.6-6.4v-32l-18.6-6.4v-26.8l97.4 33.7V762l-97.4 33.8Zm4.7-23.4v16.7l87.9-30.5v-24.2l-87.9-30.4v16.7l18.6 6.4v38.8l-18.6 6.4Zm32.5-11.1v-29.5l43.1 14.7-43.1 14.8Zm4.7-22.8v16.2l23.6-8.1-23.6-8Z"/></g></g></g></g><path class="cls-2" d="M1135.4 423.3h-.8c-1.4 0-2.2-.6-2.7-1.6l-.6-1.5 1.5-1.5.5-.2c10.5-4.2 20.3-14.9 23.7-26 4.6-15.1-.9-36-16.3-43-7.7-3.5-16.5-2.4-23.4 2.7-7 5.2-10.4 13.3-9.3 21.8 1.1 8.2 6.4 15 14.1 18.3 8 3.4 16.9 2.4 23.8-2.7l1.8-1.4 1.4 1.8c1.3 1.6 0 3.6-1.1 5.3-.8 1.2-1.7 2.4-2 2.9-13.3 16.9-37.6 20.3-55.2 7.8-9.8-7.1-16.2-18.8-16.7-30.5v-4.4c0-4.4.8-6.1 2.8-6.1h.8l3.7 3c2.3-23.3 21.7-43.1 45.5-45.2 21.4-1.8 40.6 9 50 28.2 9.3 19.1 6.2 40.7-8.3 56.3-7.3 7.8-21.3 16-33.1 16Zm-4.2-80.5c3.8 0 7.7.8 11.4 2.5 17.8 8 24.1 31.7 18.9 48.8-2.6 8.5-8.5 16.7-15.8 22.6 7.4-2.7 14.7-7.5 19.3-12.4 13.1-14.2 16-33.7 7.5-51-8.5-17.4-25.9-27.2-45.3-25.6-23 2-41.5 22.3-41.3 45.2v5.1l-7.1-5.8v3.3c.4 10.2 6 20.5 14.7 26.8 14.5 10.4 34.3 8.4 46.4-4.2-6.4 1.9-13.3 1.6-19.7-1.1-9.3-3.9-15.7-12.2-17-22.1-1.4-10.2 2.8-20 11.2-26.3 5-3.8 10.9-5.7 16.8-5.7Z"/><path class="cls-2" d="M1131.4 389.7c-3.7 0-7.5-1.2-10.7-3.5-5.1-3.7-7.9-9.7-7.5-16.1.4-6.3 3.9-11.8 9.4-14.8s12-3 17.6 0c4 2.2 7 5.7 8.5 9.8l.7-.7.4 5.2c.6 7.3-3 14-9.4 17.6-2.8 1.6-5.9 2.4-9 2.4Zm-.1-31.8c-2.2 0-4.4.5-6.4 1.6-4.1 2.2-6.7 6.3-7 10.9-.3 4.7 1.8 9.1 5.6 11.9 4.4 3.1 9.8 3.5 14.5.8 4.2-2.4 6.8-6.7 7-11.4v-1.6c-.5-4.4-3.1-8.4-7.1-10.6-2.1-1.1-4.3-1.7-6.6-1.7Z"/></g><g class="cls-3"><g class="cls-4"><g class="cls-4"><g class="cls-4"><g class="cls-4"><path class="cls-2" d="M410.9 280.3V339c-5.8 3.2-12 5.7-18.7 7.4-6.6 1.7-12.9 2.6-18.7 2.6-12.3 0-22.8-2.4-31.3-7.1-8.6-4.7-15-11.3-19.3-19.8-4.3-8.5-6.4-18.4-6.4-29.6s2.1-20.3 6.2-28.8 10.5-15.2 19-20.2 19.1-7.4 31.8-7.4 11.6.6 16 1.8c4.3 1.2 9.2 3 14.7 5.4v22.8c-4.9-2.7-9.7-4.7-14.4-6.1-4.7-1.4-10.1-2.1-16.2-2.1s-11.9 1.5-16.7 4.4c-4.7 2.9-8.3 7-10.7 12.2-2.4 5.2-3.6 11.1-3.6 17.7 0 10.7 2.7 19.2 8.2 25.6 5.4 6.4 13.1 9.6 22.9 9.6s8.4-.7 12.2-2v-22.9h-27v-22h52.2ZM636.1 260.1h-29.6v86.4h-25.8v-86.4h-29.6v-22h85v22ZM721.4 324.5h-41.9l-7.6 22h-25.8L684 236.8h32.6l38.1 109.7h-25.8l-7.6-22Zm-7.5-22L700.3 263l-13.5 39.5h27ZM858.4 280.3V339c-5.8 3.2-12 5.7-18.7 7.4-6.6 1.7-12.9 2.6-18.7 2.6-12.3 0-22.8-2.4-31.3-7.1s-15-11.3-19.3-19.8c-4.3-8.5-6.4-18.4-6.4-29.6s2.1-20.3 6.2-28.8 10.5-15.2 19-20.2 19.1-7.4 31.8-7.4 11.6.6 16 1.8c4.3 1.2 9.2 3 14.7 5.4v22.8c-4.9-2.7-9.7-4.7-14.4-6.1-4.7-1.4-10.1-2.1-16.2-2.1s-11.9 1.5-16.7 4.4c-4.7 2.9-8.3 7-10.7 12.2-2.4 5.2-3.6 11.1-3.6 17.7 0 10.7 2.7 19.2 8.2 25.6 5.4 6.4 13.1 9.6 22.9 9.6s8.4-.7 12.2-2v-22.9h-27v-22h52.2ZM946.6 324.5h-41.9l-7.6 22h-25.8l37.9-109.7h32.6l38.1 109.7h-25.8l-7.6-22Zm-7.5-22L925.5 263 912 302.5h27Z"/></g></g></g></g><path class="cls-2" d="M539.9 289.4c.4-13.1-8.6-29.3-18-38-38.3-35.4-99.8-5-95.4 47.1 2.5 28.8 27.5 51.8 56.4 51.5l-6.5 7.9c0 .3 4 .5 4.4.5h5.1c13.4-.5 26.2-7.8 34-18.6 14.1-19.7 10.2-46.7-8.7-61.6-.7-.5-5.4-4-6.1-3.7 13.8 18.7 2.9 46.1-20.4 49.3-23.5 3.2-41.7-21.1-31.9-42.7 8.8-19.5 35-26.8 54.3-20.8 13.7 4.3 27.2 16.4 32.5 29.7.2.3.2-.6.2-.8Z"/><path class="cls-2" d="M479.6 274.5c-13.4 1.1-21.3 16.1-14.8 27.9 6.6 12.1 23.8 13.2 31.8 1.9 9.6-13.2-.9-31.2-17-29.8Z"/></g><path class="cls-1" d="M385.8 451.6h-24v69.9H341v-69.9h-24v-17.8h68.8v17.8ZM476 433.8v87.7h-20.8v-35.2h-34.7v35.2h-20.8v-87.7h20.8v34.7h34.7v-34.7H476ZM550.3 435.9v12.3h-35c-1.2 0-2.2 1-2.2 2.2v18.7c0 1.2 1 2.2 2.2 2.2h29.1v12.3h-29.1c-1.2 0-2.2 1-2.2 2.2v19.1c0 1.2 1 2.2 2.2 2.2h35.5v12.3h-54.2V436h53.6m2.3-2.2h-58v87.7h58.6v-16.7h-37.8v-19.1h31.4V469h-31.4v-18.7h37.1v-16.7ZM342.5 588.8V608h31.4v17.8h-31.4v32.9h-20.8V571h58v17.8h-37.2ZM424.2 627h-9.7v31.8h-20.8v-87.7h35.5c22.3 0 33.4 9.4 33.4 28.2s-5.8 21.9-17.5 25.7l21 34h-23.2l-18.8-31.8Zm-9.9-17.6H429c8.2 0 12.4-3.4 12.4-10.3s-1-6.3-3-8c-2-1.7-5.1-2.5-9.4-2.5h-14.7v20.8ZM537.9 642.1v16.7h-58.6v-87.7h58v16.7h-37.1v18.7h31.4v16.7h-31.4v19.1H538ZM628.3 573.2v83.4h-20.5l-30.9-52.8c-.4-.7-1.1-1.1-1.9-1.1h-.5c-1 .3-1.6 1.1-1.6 2.1v51.8h-16.5v-83.4h20.5l30.9 52.8c.4.7 1.1 1.1 1.9 1.1h.5c1-.3 1.6-1.1 1.6-2.1v-51.8h16.5m2.1-2.2h-20.8v54l-31.5-54h-24v87.7h20.8v-54l31.5 54h24V571ZM690 571.5c3.9 0 7.5.4 10.5.9 2.6.5 5.5 1.4 8.6 2.6v13.2c-5.9-2.4-12.1-3.6-18.5-3.6s-10.3 1.3-14.5 4c-4.2 2.7-7.5 6.3-9.9 10.9s-3.5 9.7-3.5 15.4c0 8.9 2.5 16.3 7.2 21.8 4.8 5.6 11.7 8.5 20.1 8.5s7.8-.6 11.6-1.8c3-.9 6.1-2.3 9.3-3.8l4.6 12.8c-3.8 1.8-7.8 3.2-11.9 4.2-4.7 1.1-9.3 1.8-13.6 1.8-14.7 0-25.9-3.9-33.1-11.5s-11-18.3-11-31.9 1.7-15.8 5-22.4c3.3-6.5 8.2-11.7 14.8-15.5 6.6-3.8 14.7-5.8 24.2-5.8m.1-2c-9.9 0-18.4 2-25.4 6.1-6.9 4-12.2 9.5-15.6 16.4-3.5 6.9-5.2 14.7-5.2 23.3 0 14.2 3.9 25.4 11.5 33.4 7.7 8.2 19.3 12.2 34.7 12.2s9.2-.6 14.1-1.8 9.7-3 14.1-5.3l-6.1-17c-3.9 2.1-7.7 3.7-11.2 4.8-3.6 1.1-7.1 1.7-10.9 1.7-7.8 0-14-2.6-18.5-7.7-4.4-5.1-6.7-11.9-6.7-20.4s1.1-10.1 3.2-14.4 5.2-7.5 9.1-10c3.9-2.5 8.3-3.7 13.4-3.7 7.3 0 14.1 1.6 20.7 4.7v-18.1c-3.7-1.6-7.1-2.6-10.4-3.3s-6.8-1-11-1ZM805.7 573.2v83.4h-16.5v-33c0-1.2-1-2.2-2.2-2.2h-34.7c-1.2 0-2.2 1-2.2 2.2v33h-16.5v-83.4h16.5v32.5c0 1.2 1 2.2 2.2 2.2H787c1.2 0 2.2-1 2.2-2.2v-32.5h16.5m2.2-2.2h-20.8v34.7h-34.7V571h-20.8v87.7h20.8v-35.2h34.7v35.2h20.8V571ZM413.1 708.2v87.7h-20.8V738l-19.9 28.8H362l-19.5-28.6v57.6h-20.8v-87.7h24.1l21.7 32.5 21.7-32.5h24.1-.2ZM446.8 792c-6.8-4-11.9-9.4-15.3-16.3-3.3-6.9-5.1-14.7-5.1-23.5s1.7-16.2 5.1-23.2 8.5-12.4 15.3-16.4c6.8-4 15.1-6.1 24.8-6.1s17.7 2 24.6 6.1c6.8 4 11.9 9.6 15.4 16.5 3.4 6.9 5.2 14.6 5.2 23.2s-1.8 16.6-5.2 23.5-8.5 12.4-15.3 16.3c-6.8 4-14.9 6-24.6 6s-18-1.9-24.8-6Zm42.3-19.5c4.2-5.3 6.2-12.1 6.2-20.6s-.9-10.1-2.8-14.2c-1.8-4.2-4.6-7.5-8.2-9.8-3.6-2.4-7.8-3.6-12.8-3.6-7.6 0-13.5 2.6-17.6 7.8-4.1 5.2-6.1 11.9-6.1 20.3s2 15.3 6.1 20.4c4 5.1 10 7.7 17.7 7.7s13.3-2.6 17.5-7.8v-.2ZM606.3 708.2v87.7h-24l-31.5-54v54H530v-87.7h24l31.5 54v-54h20.8ZM637.2 796.3c-5.3-1.1-10.3-2.7-15.2-5.1v-18.8c9.8 5.2 20.6 7.8 32.3 7.8s7.9-.8 10-2.3 3.2-3.6 3.2-6.1-.9-4.5-2.8-5.8-5.3-2.6-10.2-3.9l-7.8-2.2c-4.6-1.3-8.6-2.8-12-4.6-3.3-1.8-6.3-4.4-8.7-7.8s-3.6-7.9-3.6-13.4c0-9 2.7-15.9 8.2-20.6 5.5-4.7 13.3-7.1 23.3-7.1s11.3.5 15.9 1.6 9.2 2.7 14 5v18.1c-8.9-4.7-18.8-7.1-29.8-7.1s-6.9.7-8.5 2.1-2.5 3.3-2.5 6.1.4 3.2 1.2 4.2c.8 1.1 1.9 1.9 3.6 2.6s4 1.5 7.3 2.5l8 2.2c4.9 1.4 9.2 3 12.7 4.8 3.6 1.8 6.5 4.6 8.9 8.2 2.4 3.7 3.5 8.2 3.5 14 0 8.4-3.1 15.1-9.1 19.8-6 4.8-14.2 7.2-24.7 7.2s-11.9-.5-17.2-1.6v.2ZM764.5 710.4v13.4h-21.8c-1.2 0-2.2 1-2.2 2.2v67.8H724V726c0-1.2-1-2.2-2.2-2.2H700v-13.4h64.4m2.3-2.2h-68.8V726h24v69.9h20.8V726h24v-17.8ZM836.4 710.4v12.3h-35c-1.2 0-2.2 1-2.2 2.2v18.7c0 1.2 1 2.2 2.2 2.2h29.1v12.3h-29.1c-1.2 0-2.2 1-2.2 2.2v19.1c0 1.2 1 2.2 2.2 2.2h35.5v12.3h-54.2v-83.4h53.6m2.2-2.3h-58v87.7h58.6v-16.7h-37.8v-19.1h31.4v-16.7h-31.4v-18.7h37.1V708ZM890.9 710.4c10.6 0 18.6 2.2 23.7 6.5s7.5 10.6 7.5 19.4-5.3 20.1-16 23.6c-.6.2-1.1.7-1.4 1.3-.2.6-.2 1.3.2 1.9l18.9 30.5h-18L887.6 763c-.4-.7-1.1-1.1-1.9-1.1H876c-1.2 0-2.2 1-2.2 2.2v29.5h-16.5v-83.4h33.3m-14.5 38.6h14.7c12.7 0 14.6-7.8 14.6-12.5s-1.2-7.5-3.8-9.7c-2.5-2-6-3.1-10.8-3.1h-14.7c-1.2 0-2.2 1-2.2 2.2v20.8c0 1.2 1 2.2 2.2 2.2m14.8-40.5h-35.5v87.7h20.8v-31.8h9.7l18.8 31.8h23.2l-21-34c11.7-3.8 17.5-12.4 17.5-25.7S913.3 708 891 708Zm-14.8 38.4v-20.8h14.7c4.3 0 7.4.9 9.4 2.5 2 1.7 3 4.4 3 8 0 6.8-4.1 10.3-12.4 10.3h-14.7Z"/></g></svg>