<svg xmlns="http://www.w3.org/2000/svg" viewBox="0 0 360 740"><defs><style>.cls-1{fill:#d91f26}.cls-2{fill:#fff}.cls-3{opacity:.2}.cls-4{isolation:isolate}</style></defs><g id="Layer_1"><g class="cls-3"><g class="cls-4"><g class="cls-4"><g class="cls-4"><g class="cls-4"><path class="cls-2" d="M285.32 304.98h-16.99l-.22-.39c-.9-1.61-1.6-3.37-2.07-5.2-.48-1.84-.72-3.59-.72-5.22 0-3.43.67-6.39 2-8.8 1.34-2.44 3.24-4.29 5.66-5.51 2.38-1.2 5.18-1.81 8.31-1.81s5.69.59 8.07 1.75c2.41 1.18 4.35 3 5.75 5.42 1.4 2.4 2.1 5.41 2.1 8.95 0 1.75-.17 3.27-.51 4.49-.33 1.2-.83 2.56-1.48 4.05l-.2.45h-7.9l.62-1.12c.69-1.26 1.22-2.51 1.57-3.72.35-1.2.53-2.6.53-4.16s-.36-2.94-1.06-4.09c-.71-1.15-1.68-2-2.95-2.6-1.29-.6-2.78-.91-4.43-.91-2.68 0-4.83.68-6.4 2.01-1.56 1.32-2.31 3.15-2.31 5.58 0 .89.11 1.74.33 2.51h4.85v-7.28h7.45v15.57Zm-16.09-1.52h14.58v-12.54h-4.41v7.28h-7.45l-.18-.5c-.39-1.08-.58-2.27-.58-3.53 0-2.86.96-5.13 2.85-6.74 1.85-1.58 4.34-2.38 7.38-2.38 1.87 0 3.58.35 5.08 1.05 1.53.72 2.74 1.78 3.6 3.18.85 1.39 1.29 3.03 1.29 4.88 0 1.71-.2 3.25-.59 4.58-.28.95-.65 1.92-1.12 2.9h4.38c.53-1.24.93-2.38 1.21-3.39.3-1.1.45-2.47.45-4.09 0-3.26-.64-6.02-1.9-8.19-1.25-2.15-2.97-3.78-5.11-4.82-2.17-1.06-4.66-1.6-7.41-1.6-2.9 0-5.46.56-7.63 1.65-2.13 1.08-3.82 2.72-5.01 4.89-1.2 2.19-1.81 4.9-1.81 8.07 0 1.49.23 3.12.67 4.83.41 1.57.98 3.06 1.72 4.46ZM296.68 365.58h-7.45v-7.97h-23.26v-8.45h23.26v-7.97h7.45v24.39Zm-5.93-1.52h4.41v-21.35h-4.41v7.97h-23.26v5.41h23.26v7.97ZM265.97 397.81v-8.54l5.93-2.04v-10.2l-5.93-2.04v-8.54l31.05 10.73v9.86l-31.05 10.77Zm1.52-7.46v5.32l28.01-9.72v-7.7l-28.01-9.68v5.32l5.93 2.04v12.36l-5.93 2.04Zm10.34-3.52v-9.4l13.73 4.68-13.73 4.73Zm1.52-7.28v5.15l7.52-2.59-7.52-2.56ZM285.32 425.42h-16.99l-.22-.39c-.9-1.61-1.6-3.37-2.07-5.2-.48-1.84-.72-3.59-.72-5.22 0-3.43.67-6.39 2-8.8 1.34-2.44 3.24-4.29 5.66-5.51 2.38-1.2 5.18-1.81 8.31-1.81s5.69.59 8.07 1.75c2.41 1.18 4.35 3 5.75 5.42 1.4 2.4 2.11 5.42 2.11 8.95 0 1.75-.17 3.27-.51 4.49-.33 1.2-.83 2.56-1.48 4.05l-.2.45h-7.9l.62-1.12c.69-1.26 1.22-2.51 1.57-3.72.35-1.2.53-2.6.53-4.16s-.36-2.94-1.06-4.09c-.71-1.15-1.68-2-2.95-2.6-1.29-.6-2.78-.91-4.43-.91-2.68 0-4.83.68-6.4 2.01-1.56 1.32-2.31 3.15-2.31 5.58 0 .89.11 1.74.33 2.51h4.85v-7.28h7.45v15.57Zm-16.09-1.52h14.58v-12.54h-4.41v7.28h-7.45l-.18-.5c-.39-1.08-.58-2.26-.58-3.53 0-2.86.96-5.13 2.85-6.74 1.85-1.58 4.34-2.38 7.38-2.38 1.87 0 3.58.35 5.08 1.05 1.53.71 2.74 1.78 3.6 3.18.85 1.39 1.29 3.03 1.29 4.88 0 1.71-.2 3.25-.59 4.58-.28.95-.65 1.92-1.12 2.9h4.38c.53-1.24.93-2.38 1.21-3.39.3-1.1.45-2.47.45-4.09 0-3.26-.64-6.02-1.9-8.19-1.25-2.15-2.97-3.78-5.11-4.82-2.17-1.06-4.66-1.6-7.41-1.6-2.89 0-5.46.56-7.63 1.65-2.13 1.08-3.82 2.72-5.01 4.89-1.2 2.19-1.81 4.9-1.81 8.07 0 1.49.23 3.12.67 4.83.41 1.57.98 3.06 1.72 4.46ZM265.97 458.41v-8.54l5.93-2.04v-10.2l-5.93-2.04v-8.54l31.05 10.73v9.86l-31.05 10.77Zm1.52-7.45v5.32l28.01-9.72v-7.7l-28.01-9.68v5.32l5.93 2.04v12.36l-5.93 2.04Zm10.34-3.52v-9.4l13.73 4.68-13.73 4.73Zm1.52-7.28v5.15l7.52-2.59-7.52-2.56Z"/></g></g></g></g><path class="cls-2" d="M282.35 339.71h-.27c-.43-.01-.72-.18-.85-.5l-.19-.47.48-.49.14-.06c3.35-1.33 6.45-4.74 7.55-8.27 1.47-4.82-.27-11.48-5.21-13.71-2.47-1.1-5.26-.78-7.46.87-2.22 1.65-3.33 4.25-2.97 6.95.35 2.6 2.04 4.78 4.51 5.83 2.55 1.08 5.38.76 7.57-.86l.59-.43.46.57c.42.52.01 1.14-.34 1.68-.24.37-.54.78-.65.91-4.25 5.38-11.99 6.48-17.6 2.47-3.14-2.26-5.18-5.99-5.32-9.73v-1.4c0-1.41.24-1.93.9-1.93h.27l1.17.95c.72-7.43 6.93-13.74 14.49-14.4 6.83-.59 12.94 2.86 15.94 8.99 2.98 6.08 1.96 12.96-2.65 17.95-2.33 2.5-6.78 5.08-10.56 5.09Zm-1.34-25.67c1.22 0 2.45.26 3.62.78 5.66 2.56 7.69 10.1 6.04 15.54-.84 2.69-2.72 5.32-5.02 7.19 2.36-.85 4.7-2.4 6.15-3.96 4.17-4.51 5.09-10.74 2.39-16.25-2.72-5.55-8.26-8.67-14.44-8.14-7.32.64-13.23 7.11-13.18 14.42v1.61l-2.27-1.86v1.06c.13 3.25 1.92 6.53 4.69 8.53a11.36 11.36 0 0 0 14.79-1.35c-2.03.62-4.23.51-6.29-.36-2.97-1.26-5-3.89-5.42-7.03-.43-3.25.9-6.38 3.56-8.37 1.61-1.2 3.48-1.82 5.37-1.82Z"/><path class="cls-2" d="M281.05 328.98a5.842 5.842 0 0 1-5.8-6.23c.13-2 1.25-3.76 3.01-4.72 1.74-.95 3.84-.94 5.61.02 1.28.7 2.23 1.81 2.7 3.13l.21-.21.13 1.64c.18 2.32-.96 4.47-2.98 5.61-.9.51-1.88.76-2.86.76Zm-.02-10.13c-.71 0-1.41.17-2.05.52a4.29 4.29 0 0 0-2.22 3.49 4.33 4.33 0 0 0 1.77 3.79c1.4 1 3.13 1.1 4.63.26a4.354 4.354 0 0 0 2.23-3.65l-.04-.5c-.11-1.42-.94-2.68-2.22-3.37-.66-.36-1.39-.54-2.11-.54Z"/></g><g class="cls-3"><g class="cls-4"><g class="cls-4"><g class="cls-4"><g class="cls-4"><path class="cls-2" d="M51.41 294.12v18.7a25.321 25.321 0 0 1-5.95 2.37c-2.11.55-4.1.82-5.95.82-3.92 0-7.25-.75-9.99-2.26s-4.79-3.61-6.16-6.32c-1.37-2.71-2.05-5.85-2.05-9.44s.66-6.46 1.98-9.17c1.32-2.71 3.34-4.85 6.07-6.43 2.72-1.58 6.1-2.37 10.15-2.37 2.01 0 3.7.19 5.09.57 1.38.38 2.94.95 4.67 1.71v7.25c-1.55-.85-3.08-1.5-4.58-1.94-1.51-.44-3.23-.66-5.18-.66s-3.81.46-5.31 1.39c-1.5.93-2.65 2.22-3.42 3.88-.78 1.66-1.16 3.53-1.16 5.63 0 3.41.87 6.13 2.6 8.16 1.73 2.04 4.17 3.06 7.3 3.06 1.4 0 2.69-.21 3.88-.64v-7.3h-8.62v-7.02h16.65ZM123.19 287.69h-9.44v27.55h-8.21v-27.55H96.1v-7.02h27.09v7.02ZM150.37 308.21h-13.36l-2.42 7.02h-8.21l12.09-34.98h10.4L161 315.23h-8.21l-2.42-7.02Zm-2.37-7.02-4.33-12.59-4.29 12.59H148ZM194.06 294.12v18.7a25.494 25.494 0 0 1-5.95 2.37c-2.11.55-4.1.82-5.95.82-3.92 0-7.25-.75-9.99-2.26s-4.79-3.61-6.16-6.32c-1.37-2.71-2.05-5.85-2.05-9.44s.66-6.46 1.98-9.17c1.32-2.71 3.34-4.85 6.07-6.43 2.72-1.58 6.1-2.37 10.15-2.37 2.01 0 3.7.19 5.09.57 1.38.38 2.94.95 4.67 1.71v7.25c-1.55-.85-3.08-1.5-4.58-1.94-1.51-.44-3.23-.66-5.18-.66s-3.81.46-5.31 1.39c-1.5.93-2.65 2.22-3.42 3.88-.78 1.66-1.16 3.53-1.16 5.63 0 3.41.87 6.13 2.6 8.16 1.73 2.04 4.17 3.06 7.3 3.06 1.4 0 2.69-.21 3.88-.64v-7.3h-8.62v-7.02h16.65ZM222.16 308.21H208.8l-2.42 7.02h-8.21l12.09-34.98h10.4l12.13 34.98h-8.21l-2.42-7.02Zm-2.37-7.02-4.33-12.59-4.29 12.59h8.62Z"/></g></g></g></g><path class="cls-2" d="M92.53 297.03c.14-4.17-2.74-9.34-5.73-12.11-12.22-11.3-31.82-1.59-30.4 15.02.78 9.17 8.78 16.5 17.98 16.41l-2.07 2.52c0 .08 1.29.17 1.4.17h1.62c4.28-.17 8.36-2.49 10.82-5.93 4.5-6.26 3.24-14.88-2.77-19.63-.22-.17-1.73-1.29-1.93-1.17 4.39 5.96.92 14.71-6.49 15.71-7.49 1.01-13.28-6.71-10.18-13.62 2.8-6.21 11.16-8.56 17.31-6.63 4.36 1.37 8.67 5.23 10.37 9.48.06.08.06-.2.06-.25v.03Z"/><path class="cls-2" d="M73.32 292.28c-4.28.36-6.79 5.12-4.73 8.89 2.1 3.86 7.58 4.19 10.15.62 3.05-4.19-.28-9.95-5.42-9.51Z"/></g><path class="cls-1" d="M43.43 348.71H35.8V371h-6.63v-22.29h-7.63v-5.68h21.92v5.68h-.03ZM72.17 343.03v27.96h-6.63v-11.21H54.49v11.21h-6.63v-27.96h6.63v11.07h11.05v-11.07h6.63ZM95.85 343.73v3.91H84.69c-.39 0-.7.31-.7.7v5.96c0 .39.31.7.7.7h9.28v3.91h-9.28c-.39 0-.7.31-.7.7v6.1c0 .39.31.7.7.7h11.32v3.91H78.73v-26.59h17.09m.73-.7H78.07v27.96h18.68v-5.31H84.7v-6.1h10.01v-5.31H84.7v-5.96h11.83V343l.03.03ZM29.61 392.44v6.12h10.01v5.68H29.61v10.49h-6.63v-27.96h18.48v5.68H29.6ZM55.64 404.63h-3.1v10.12h-6.63v-27.96h11.32c7.1 0 10.65 2.99 10.65 8.98s-1.85 6.99-5.56 8.19L69 414.78h-7.38l-5.98-10.12v-.03Zm-3.13-5.62h4.7c2.63 0 3.94-1.09 3.94-3.27s-.31-2.01-.95-2.54-1.62-.81-2.99-.81h-4.7v6.63ZM91.91 409.44v5.31H73.23v-27.96h18.48v5.31H79.88v5.96h10.01v5.31H79.88v6.1h12.05l-.03-.03ZM120.71 387.46v26.59h-6.54l-9.84-16.83c-.14-.22-.36-.36-.62-.36h-.17c-.31.08-.5.36-.5.67v16.5h-5.26v-26.59h6.54l9.84 16.83c.14.22.36.36.62.36h.17c.31-.08.5-.36.5-.67v-16.5h5.26m.67-.7h-6.63v17.2l-10.04-17.2h-7.63v27.96h6.63v-17.2l10.04 17.2h7.63v-27.96ZM140.37 386.93c1.26 0 2.38.11 3.36.28.84.17 1.76.45 2.74.84v4.22c-1.87-.75-3.86-1.15-5.9-1.15s-3.27.42-4.61 1.29-2.4 2.01-3.16 3.47-1.12 3.08-1.12 4.89c0 2.85.78 5.2 2.29 6.96 1.54 1.79 3.72 2.71 6.4 2.71s2.49-.2 3.69-.56c.95-.28 1.96-.73 2.96-1.2l1.48 4.08c-1.2.59-2.49 1.03-3.8 1.34-1.51.36-2.96.56-4.33.56-4.7 0-8.25-1.23-10.54-3.66-2.29-2.43-3.5-5.84-3.5-10.18s.53-5.03 1.59-7.13c1.06-2.07 2.6-3.72 4.73-4.95 2.1-1.2 4.7-1.85 7.72-1.85m0-.66c-3.16 0-5.87.64-8.08 1.93s-3.89 3.02-4.98 5.23c-1.12 2.21-1.65 4.7-1.65 7.44 0 4.53 1.23 8.08 3.66 10.65 2.46 2.6 6.15 3.89 11.05 3.89s2.94-.2 4.5-.59 3.08-.95 4.5-1.68l-1.96-5.42c-1.26.67-2.46 1.17-3.58 1.54-1.15.36-2.26.53-3.47.53-2.49 0-4.47-.84-5.9-2.46-1.4-1.62-2.13-3.8-2.13-6.52s.34-3.22 1.03-4.59 1.65-2.4 2.91-3.19 2.66-1.17 4.28-1.17c2.32 0 4.5.5 6.6 1.51v-5.76c-1.17-.5-2.26-.84-3.3-1.06s-2.18-.31-3.5-.31v.03ZM177.25 387.46v26.59h-5.26v-10.51c0-.39-.31-.7-.7-.7h-11.05c-.39 0-.7.31-.7.7v10.51h-5.26v-26.59h5.26v10.37c0 .39.31.7.7.7h11.05c.39 0 .7-.31.7-.7v-10.37h5.26m.7-.7h-6.63v11.07h-11.05v-11.07h-6.63v27.96h6.63v-11.21h11.05v11.21h6.63v-27.96ZM52.12 430.5v27.96h-6.63V440l-6.35 9.17h-3.33l-6.21-9.12v18.37h-6.63v-27.96h7.69l6.91 10.35 6.91-10.35h7.69l-.06.03ZM62.86 457.2c-2.15-1.29-3.8-2.99-4.87-5.2-1.06-2.21-1.62-4.7-1.62-7.49s.53-5.17 1.62-7.38 2.71-3.94 4.87-5.23c2.15-1.29 4.81-1.96 7.91-1.96s5.65.64 7.83 1.96c2.15 1.29 3.8 3.05 4.89 5.26s1.65 4.64 1.65 7.38-.56 5.28-1.65 7.49-2.71 3.94-4.87 5.2c-2.15 1.29-4.75 1.9-7.83 1.9s-5.73-.62-7.91-1.9l-.03-.03Zm13.48-6.21c1.34-1.68 1.99-3.86 1.99-6.57s-.28-3.22-.89-4.53c-.59-1.34-1.45-2.38-2.6-3.13s-2.49-1.15-4.08-1.15c-2.43 0-4.31.84-5.62 2.49-1.31 1.65-1.96 3.8-1.96 6.46s.64 4.87 1.96 6.52c1.29 1.62 3.19 2.46 5.65 2.46s4.25-.84 5.56-2.49v-.06ZM113.69 430.5v27.96h-7.63l-10.04-17.2v17.2h-6.63V430.5h7.63l10.04 17.2v-17.2h6.63ZM123.54 458.6c-1.68-.34-3.27-.87-4.84-1.62V451c3.13 1.65 6.57 2.49 10.29 2.49s2.52-.25 3.19-.73 1.01-1.15 1.01-1.96-.28-1.43-.89-1.85-1.68-.84-3.24-1.23l-2.49-.7c-1.48-.42-2.74-.89-3.83-1.45-1.06-.56-2.01-1.4-2.77-2.49s-1.15-2.52-1.15-4.28c0-2.88.87-5.06 2.63-6.57 1.76-1.51 4.25-2.26 7.44-2.26s3.61.17 5.06.5 2.94.87 4.47 1.59v5.76c-2.82-1.51-5.98-2.26-9.51-2.26s-2.21.22-2.71.67-.78 1.06-.78 1.93.11 1.01.39 1.34c.25.34.62.62 1.15.84s1.29.48 2.32.78l2.54.7c1.57.45 2.94.95 4.05 1.54 1.15.59 2.07 1.48 2.82 2.6.75 1.17 1.12 2.63 1.12 4.47 0 2.68-.98 4.81-2.91 6.32-1.9 1.54-4.53 2.29-7.89 2.29s-3.8-.17-5.48-.5v.06ZM164.11 431.2v4.28h-6.93c-.39 0-.7.31-.7.7v21.61h-5.26v-21.61c0-.39-.31-.7-.7-.7h-6.93v-4.28h20.52m.7-.7h-21.92v5.68h7.63v22.29h6.63v-22.29h7.63v-5.68h.03ZM187.04 431.2v3.91h-11.16c-.39 0-.7.31-.7.7v5.96c0 .39.31.7.7.7h9.28v3.91h-9.28c-.39 0-.7.31-.7.7v6.1c0 .39.31.7.7.7h11.32v3.91h-17.28V431.2h17.09m.7-.7h-18.48v27.96h18.68v-5.31h-12.05v-6.1h10.01v-5.31h-10.01v-5.96h11.83v-5.31l.03.03ZM204.41 431.2c3.38 0 5.93.7 7.55 2.07s2.4 3.38 2.4 6.18-1.68 6.4-5.09 7.52c-.2.06-.36.22-.45.42-.06.2-.06.42.06.62l6.04 9.73h-5.73l-5.79-9.76a.712.712 0 0 0-.62-.34h-3.1c-.39 0-.7.31-.7.7v9.4h-5.26v-26.59h10.63m-4.64 12.29h4.7c4.05 0 4.64-2.49 4.64-3.97s-.39-2.4-1.2-3.08c-.78-.64-1.9-.98-3.44-.98h-4.7c-.39 0-.7.31-.7.7v6.63c0 .39.31.7.7.7m4.7-12.94h-11.32v27.96h6.63v-10.12h3.1l5.98 10.12h7.38l-6.68-10.82c3.72-1.2 5.56-3.94 5.56-8.19s-3.55-8.98-10.65-8.98v.03Zm-4.7 12.25v-6.63h4.7c1.37 0 2.35.28 2.99.81.64.53.95 1.4.95 2.54 0 2.18-1.31 3.27-3.94 3.27h-4.7Z"/></g></svg>