<svg xmlns="http://www.w3.org/2000/svg" viewBox="0 0 80 80"><path d="M76.78 35.33c.26-8.42-5.57-18.98-11.63-24.58C40.33-12.18.48 7.54 3.36 41.21c1.59 18.6 17.86 33.47 36.57 33.33l-4.21 5.12c-.06.18 2.64.32 2.87.33h.57c.7.02 1.41.02 2.11 0h.57c8.67-.33 16.99-5.04 22-12.02 9.11-12.7 6.58-30.22-5.64-39.85-.46-.36-3.55-2.64-3.92-2.35 8.92 12.06 1.86 29.89-13.18 31.92-15.2 2.06-27.01-13.64-20.7-27.66 5.68-12.6 22.65-17.37 35.19-13.47 8.87 2.75 17.63 10.61 21.08 19.25.14.16.09-.41.1-.48Z"/><path d="M37.7 25.7c-8.73.72-13.81 10.37-9.6 18.05 4.28 7.83 15.39 8.51 20.62 1.27 6.15-8.52-.58-20.17-11.01-19.32Z"/></svg>