<svg id="Layer_1" xmlns="http://www.w3.org/2000/svg" viewBox="0 0 80 80"><defs><style>.cls-1{fill:#fff}</style></defs><path class="cls-1" d="M76.74 34.48C77 26.06 71.18 15.5 65.13 9.9 40.32-13.04.53 6.69 3.4 40.36c1.59 18.6 17.84 33.47 36.52 33.33l-4.21 5.12c-.06.18 2.63.32 2.87.33h.57c.69.02 1.41.02 2.1 0h.57c8.66-.33 16.97-5.04 21.97-12.02 9.1-12.7 6.57-30.22-5.63-39.85-.46-.36-3.55-2.64-3.91-2.35 8.91 12.06 1.85 29.89-13.16 31.92C25.91 58.9 14.11 43.2 20.42 29.18c5.67-12.6 22.62-17.37 35.15-13.47 8.86 2.75 17.6 10.61 21.06 19.25.14.16.09-.41.1-.48Z"/><path class="cls-1" d="M37.71 24.85c-8.72.72-13.79 10.37-9.59 18.05 4.28 7.83 15.37 8.51 20.59 1.27 6.15-8.52-.58-20.17-11-19.32Z"/></svg>